<?xml version="1.0" encoding="UTF-8" standalone="no"?>
<!-- Created with Inkscape (http://www.inkscape.org/) -->
<svg
   xmlns:dc="http://purl.org/dc/elements/1.1/"
   xmlns:cc="http://creativecommons.org/ns#"
   xmlns:rdf="http://www.w3.org/1999/02/22-rdf-syntax-ns#"
   xmlns:svg="http://www.w3.org/2000/svg"
   xmlns="http://www.w3.org/2000/svg"
   xmlns:sodipodi="http://sodipodi.sourceforge.net/DTD/sodipodi-0.dtd"
   xmlns:inkscape="http://www.inkscape.org/namespaces/inkscape"
   width="400"
   height="400"
   id="svg2"
   sodipodi:version="0.32"
   inkscape:version="0.46"
   version="1.0"
   sodipodi:docname="splash.svg"
   inkscape:output_extension="org.inkscape.output.svg.inkscape">
  <defs
     id="defs4">
    <inkscape:perspective
       sodipodi:type="inkscape:persp3d"
       inkscape:vp_x="0 : 526.18109 : 1"
       inkscape:vp_y="0 : 1000 : 0"
       inkscape:vp_z="744.09448 : 526.18109 : 1"
       inkscape:persp3d-origin="372.04724 : 350.78739 : 1"
       id="perspective10" />
  </defs>
  <sodipodi:namedview
     id="base"
     pagecolor="#ffffff"
     bordercolor="#666666"
     borderopacity="1.0"
     gridtolerance="10000"
     guidetolerance="10"
     objecttolerance="10"
     inkscape:pageopacity="0.0"
     inkscape:pageshadow="2"
     inkscape:zoom="1.7"
     inkscape:cx="238.38694"
     inkscape:cy="200"
     inkscape:document-units="px"
     inkscape:current-layer="svg2"
     showgrid="false"
     inkscape:window-width="1680"
     inkscape:window-height="1020"
     inkscape:window-x="0"
     inkscape:window-y="30" />
  <metadata
     id="metadata7">
    <rdf:RDF>
      <cc:Work
         rdf:about="">
        <dc:format>image/svg+xml</dc:format>
        <dc:type
           rdf:resource="http://purl.org/dc/dcmitype/StillImage" />
      </cc:Work>
    </rdf:RDF>
  </metadata>
  <g
     inkscape:label="Layer 1"
     inkscape:groupmode="layer"
     id="layer1">
    <path
       style="font-size:40px;font-style:italic;font-variant:normal;font-weight:bold;font-stretch:normal;text-align:center;writing-mode:lr-tb;text-anchor:middle;fill:#000000;fill-opacity:1;stroke:#000000;stroke-width:1px;stroke-linecap:butt;stroke-linejoin:miter;stroke-opacity:1;font-family:Steve;-inkscape-font-specification:Steve Bold Italic"
       d="M 150.02226,73.671001 L 149.74226,72.911001 L 149.78226,73.471001 L 149.82226,74.191001 L 149.82226,74.671001 C 149.82223,74.831028 149.79556,75.017694 149.74226,75.231001 C 149.74223,75.417694 149.6489,75.591027 149.46226,75.751001 L 149.06226,74.351001 C 149.0089,74.111029 148.9689,73.884362 148.94226,73.671001 C 148.91557,73.457696 148.8489,73.204363 148.74226,72.911001 C 148.4489,73.257696 148.10223,74.111029 147.70226,75.471001 L 146.26226,80.271001 L 144.66226,84.431001 L 141.62226,92.511001 C 140.52891,95.577674 139.98224,97.364339 139.98226,97.871001 L 139.66226,98.551001 L 138.90226,100.471 L 137.66226,102.151 C 137.34224,102.631 136.68891,102.96433 135.70226,103.151 C 134.58225,102.351 133.11558,99.991003 131.30226,96.071001 C 129.51558,92.151011 128.24892,88.737681 127.50226,85.831001 L 126.30226,81.471001 L 125.58226,79.311001 L 125.34226,78.191001 L 125.22226,77.631001 L 124.46226,74.311001 C 124.06226,73.857696 123.74226,73.217696 123.50226,72.391001 C 123.23559,71.537698 123.10226,70.444366 123.10226,69.111001 C 123.10226,68.631034 123.19559,68.284368 123.38226,68.071001 L 123.90226,67.511001 L 125.10226,67.511001 C 125.58226,67.591035 125.92892,67.777702 126.14226,68.071001 C 126.51559,68.604368 126.70225,69.351033 126.70226,70.311001 L 127.14226,72.511001 C 127.94225,76.431026 128.46225,79.151024 128.70226,80.671001 L 129.62226,84.031001 L 130.02226,85.751001 L 133.50226,95.031001 C 133.50225,95.271008 133.70225,95.591007 134.10226,95.991001 C 134.50225,96.36434 134.70225,96.711006 134.70226,97.031001 C 134.70225,97.404339 135.08891,97.791005 135.86226,98.191001 L 137.06226,98.591001 C 138.34224,95.92434 139.52891,93.311009 140.62226,90.751001 C 141.60891,88.457681 142.56891,86.071017 143.50226,83.591001 L 146.22226,75.631001 C 146.86223,73.817696 147.6889,72.484364 148.70226,71.631001 C 149.0489,71.631031 149.38223,71.937698 149.70226,72.551001 C 149.86223,72.924363 149.9689,73.297696 150.02226,73.671001 M 158.62851,67.711001 C 158.6285,68.751034 158.4685,69.444367 158.14851,69.791001 C 157.8285,70.111033 157.1485,70.431032 156.10851,70.751001 L 155.62851,69.191001 C 155.4685,68.391034 155.3885,67.697702 155.38851,67.111001 C 155.3885,66.60437 155.4285,66.24437 155.50851,66.031001 C 155.61517,65.791037 155.81517,65.671037 156.10851,65.671001 C 157.04183,65.671037 157.69517,65.791037 158.06851,66.031001 C 158.44183,66.24437 158.6285,66.804369 158.62851,67.711001 M 174.42851,91.391001 L 174.38851,91.791001 C 174.36182,91.924344 174.33515,92.004344 174.30851,92.031001 C 174.30848,94.377675 172.73515,96.391006 169.58851,98.071001 C 165.69516,100.09767 162.20183,101.111 159.10851,101.111 C 156.97517,101.111 155.53517,100.57767 154.78851,99.511001 C 154.60184,99.21767 154.09517,97.724338 153.26851,95.031001 C 152.9485,95.111008 152.5485,95.311007 152.06851,95.631001 L 151.50851,96.071001 L 146.94851,96.071001 L 146.94851,93.551001 C 149.98851,92.75101 152.12184,91.604345 153.34851,90.111001 C 154.09517,89.151014 154.69517,87.564349 155.14851,85.351001 C 155.6285,83.137686 156.20183,81.457688 156.86851,80.311001 L 159.42851,81.311001 C 159.96183,81.551021 160.6285,82.057687 161.42851,82.831001 C 160.12183,84.457685 159.0685,86.337683 158.26851,88.471001 C 157.4685,90.577679 157.0685,92.604344 157.06851,94.551001 C 157.0685,95.751007 157.3485,96.724339 157.90851,97.471001 C 158.4685,98.217671 159.20183,98.591004 160.10851,98.591001 C 160.64183,98.591004 161.77516,98.391004 163.50851,97.991001 C 166.17516,97.377672 168.29516,96.60434 169.86851,95.671001 C 172.13515,94.364342 173.26848,92.804343 173.26851,90.991001 L 173.90851,90.871001 L 174.30851,90.991001 C 174.38848,91.071012 174.42848,91.204345 174.42851,91.391001 M 199.75476,97.751001 C 199.75473,98.391004 199.1414,99.191004 197.91476,100.151 C 196.4214,101.32434 194.72807,101.911 192.83476,101.911 L 182.67476,101.911 C 179.92808,101.591 177.84808,101.311 176.43476,101.071 C 172.27476,100.351 170.19476,99.564337 170.19476,98.711001 C 170.19476,98.017671 170.60809,97.351005 171.43476,96.711001 L 176.67476,94.111001 L 178.55476,94.111001 L 178.55476,95.471001 C 177.24808,96.057673 176.47475,96.44434 176.23476,96.631001 L 175.31476,97.511001 C 175.95475,98.151005 177.36808,98.751004 179.55476,99.311001 C 180.64808,99.551003 181.82141,99.73767 183.07476,99.871001 C 184.35474,100.00434 185.76808,100.071 187.31476,100.071 C 188.11474,100.071 188.67474,100.05767 188.99476,100.031 C 189.31474,100.00434 190.02141,99.89767 191.11476,99.711001 C 193.83474,99.311003 195.64807,98.657671 196.55476,97.751001 C 195.32807,96.817673 192.36807,95.657674 187.67476,94.271001 C 182.44808,92.75101 178.84808,91.431011 176.87476,90.311001 C 173.38142,88.391014 171.63476,85.951017 171.63476,82.991001 C 171.63476,80.857689 172.22142,79.49769 173.39476,78.911001 C 174.14142,78.564358 175.70142,78.391024 178.07476,78.391001 C 179.80808,78.391024 181.06141,78.484358 181.83476,78.671001 C 182.63475,78.831024 183.36808,79.204357 184.03476,79.791001 L 184.03476,81.191001 C 182.67475,81.751021 181.79475,82.031021 181.39476,82.031001 C 181.23475,82.031021 181.11475,81.897688 181.03476,81.631001 C 181.00808,81.364355 180.78141,81.217688 180.35476,81.191001 L 177.59476,82.191001 C 175.75475,82.91102 174.82142,83.484353 174.79476,83.911001 C 174.79475,85.937684 176.94142,87.884348 181.23476,89.751001 L 193.27476,93.911001 C 197.59473,95.351007 199.75473,96.631006 199.75476,97.751001 M 220.72913,87.991001 C 220.72911,91.591011 219.63578,94.777675 217.44913,97.551001 C 215.04912,100.591 211.90245,102.111 208.00913,102.111 C 205.55579,102.111 203.44913,100.73767 201.68913,97.991001 C 200.2758,95.72434 199.56913,93.484343 199.56913,91.271001 L 199.56913,87.071001 L 199.32913,85.871001 C 199.24913,85.337684 199.18247,84.831018 199.12913,84.351001 C 199.0758,83.871019 199.04913,83.431019 199.04913,83.031001 C 199.04913,81.804354 199.18247,80.697689 199.44913,79.711001 C 199.74247,78.724357 200.24913,77.871025 200.96913,77.151001 L 201.40913,77.111001 L 202.04913,77.071001 L 203.00913,77.191001 C 203.2758,77.271026 203.50246,77.511025 203.68913,77.911001 C 203.87579,78.311024 203.96913,78.751024 203.96913,79.231001 C 203.96913,79.631023 203.92913,80.071023 203.84913,80.551001 C 203.76913,81.004355 203.62246,81.551021 203.40913,82.191001 C 203.32913,82.51102 203.26246,82.737687 203.20913,82.871001 C 203.18246,83.004353 203.06246,83.297686 202.84913,83.751001 L 202.24913,86.191001 C 202.00913,87.391015 201.88913,88.151015 201.88913,88.471001 C 201.88913,91.777678 202.7158,94.537675 204.36913,96.751001 C 205.86246,98.751004 207.86246,99.751003 210.36913,99.751001 C 212.07579,99.751003 213.67578,98.884337 215.16913,97.151001 C 216.98245,95.097674 217.88911,92.524344 217.88913,89.431001 C 217.88911,86.60435 217.36911,84.351018 216.32913,82.671001 C 215.82245,81.817688 215.56912,81.084355 215.56913,80.471001 C 215.56912,79.911023 215.72912,79.524357 216.04913,79.311001 C 216.36912,79.151024 216.83578,79.071024 217.44913,79.071001 C 218.54245,79.071024 219.40911,80.164356 220.04913,82.351001 C 220.50244,84.031019 220.72911,85.911017 220.72913,87.991001 M 258.94538,99.031001 L 258.54538,99.471001 C 257.79868,100.05767 256.45201,100.631 254.50538,101.191 C 252.85202,101.64433 251.75869,101.871 251.22538,101.871 C 248.74536,101.871 246.54536,101.271 244.62538,100.071 L 239.86538,96.191001 C 237.97203,97.711005 235.65204,99.111004 232.90538,100.391 C 230.15871,101.64433 227.47871,102.271 224.86538,102.271 C 224.30538,102.271 223.62538,102.00433 222.82538,101.471 C 222.02538,100.93767 221.62538,100.271 221.62538,99.471001 C 221.62538,97.097672 223.03871,94.791008 225.86538,92.551001 C 229.01204,90.097679 232.73204,88.871014 237.02538,88.871001 C 238.06537,88.871014 238.74537,88.444348 239.06538,87.591001 C 239.1987,86.924349 239.3187,86.351016 239.42538,85.871001 C 239.5587,85.364351 239.70536,84.884351 239.86538,84.431001 C 238.77203,83.764352 237.33203,83.19102 235.54538,82.711001 C 233.7587,82.231021 232.22537,81.991021 230.94538,81.991001 C 230.01204,81.991021 229.31871,82.017687 228.86538,82.071001 C 228.41204,82.097687 227.63871,82.177687 226.54538,82.311001 C 225.47871,82.417687 224.63871,82.497687 224.02538,82.551001 C 223.43871,82.604354 222.90538,82.63102 222.42538,82.631001 L 220.46538,82.511001 C 219.82538,82.43102 219.29205,82.284354 218.86538,82.071001 C 218.43872,81.857688 218.22539,81.484355 218.22538,80.951001 C 218.22539,80.391022 218.41205,79.93769 218.78538,79.591001 C 218.89205,79.511023 219.26539,79.404357 219.90538,79.271001 L 221.82538,79.151001 C 222.41205,79.151024 223.05205,79.164357 223.74538,79.191001 C 224.43871,79.21769 225.18538,79.271024 225.98538,79.351001 C 226.46538,79.351023 227.17204,79.431023 228.10538,79.591001 C 230.71871,79.591023 233.14537,79.791023 235.38538,80.191001 C 238.34537,80.724355 240.6787,81.591021 242.38538,82.791001 C 244.49203,84.257685 245.54536,86.151017 245.54538,88.471001 C 245.54536,89.13768 245.14536,89.884346 244.34538,90.711001 C 243.54536,91.537678 243.14536,92.417677 243.14538,93.351001 C 243.14536,94.977674 244.18536,96.471006 246.26538,97.831001 C 248.34536,99.191004 250.67869,99.871003 253.26538,99.871001 C 253.79868,99.871003 254.58535,99.77767 255.62538,99.591001 C 256.77201,99.431003 257.59868,99.244337 258.10538,99.031001 L 258.94538,99.031001 M 239.46538,93.751001 L 239.10538,92.151001 C 238.94537,91.591011 238.25203,91.311011 237.02538,91.311001 C 233.7187,91.311011 230.59871,92.337677 227.66538,94.391001 C 225.26538,96.071007 224.06538,97.337672 224.06538,98.191001 C 224.06538,98.644337 224.22538,99.05767 224.54538,99.431001 C 224.70538,99.564337 224.90538,99.671003 225.14538,99.751001 C 225.38538,99.831003 225.69205,99.871003 226.06538,99.871001 C 228.19871,99.871003 230.82537,98.991004 233.94538,97.231001 L 239.46538,93.751001 M 258.39663,100.951 L 258.11663,101.591 C 257.90329,101.991 257.66329,102.21767 257.39663,102.271 C 256.96996,102.271 256.55663,101.77767 256.15663,100.791 C 255.80996,99.77767 255.36996,98.057671 254.83663,95.631001 L 253.11663,87.191001 L 251.87663,80.951001 C 251.39663,78.231025 251.15663,75.057694 251.15663,71.431001 L 251.11663,70.511001 C 251.11663,69.844366 251.19663,69.2977 251.35663,68.871001 C 251.51663,68.417701 251.88997,68.191035 252.47663,68.191001 C 252.9033,68.191035 253.16996,68.351034 253.27663,68.671001 C 253.3833,68.964367 253.44996,69.2577 253.47663,69.551001 C 253.5033,69.8177 253.51663,70.284366 253.51663,70.951001 L 253.51663,73.151001 C 253.51663,74.271029 253.52996,75.324361 253.55663,76.311001 C 253.5833,77.297692 253.64996,78.417691 253.75663,79.671001 C 253.88996,80.897689 254.11663,82.524354 254.43663,84.551001 L 255.43663,88.631001 L 257.35663,96.391001 L 258.39663,100.951 M 277.05476,87.191001 C 277.13474,87.751015 276.40141,88.164348 274.85476,88.431001 L 272.89476,88.711001 L 265.53476,90.031001 L 261.41476,90.871001 L 259.53476,91.471001 L 258.89476,91.191001 L 258.69476,90.031001 L 260.73476,89.231001 L 261.61476,89.511001 L 268.69476,88.311001 L 273.85476,87.351001 L 273.89476,87.231001 C 274.02808,87.017682 274.57474,86.817683 275.53476,86.631001 L 275.77476,86.471001 L 276.29476,86.311001 C 276.48141,86.311016 276.62807,86.36435 276.73476,86.471001 C 276.86807,86.577683 276.97474,86.817683 277.05476,87.191001 M 98.146011,121.831 L 97.066012,123.231 C 96.665978,123.71103 96.319312,123.95103 96.026011,123.951 L 91.826012,123.951 C 87.159321,123.95103 82.639326,125.07103 78.266012,127.311 C 74.346001,129.33769 71.13267,131.91102 68.626012,135.031 C 66.119342,138.12435 64.86601,141.03101 64.866011,143.751 C 64.86601,146.23101 65.906009,148.11101 67.986012,149.391 C 69.692672,150.40434 71.746003,150.911 74.146011,150.911 C 75.799332,150.911 78.172663,150.55101 81.266012,149.831 C 85.212656,148.89767 87.185988,147.85767 87.186011,146.711 C 87.185988,145.16434 86.292655,143.87101 84.506011,142.831 C 82.745992,141.76434 80.545994,141.23101 77.906012,141.231 L 77.026011,141.071 C 75.665999,140.69768 74.986,140.19101 74.986012,139.551 C 74.986,138.56435 75.732666,137.89768 77.226011,137.551 C 78.745996,137.20435 82.345993,137.03102 88.026011,137.031 L 95.626012,137.031 L 95.626012,138.711 L 92.666011,146.271 C 92.665982,146.88434 92.945982,147.73767 93.506011,148.831 L 94.346012,150.511 C 94.345981,151.12434 93.985981,151.671 93.266012,152.151 L 90.986012,153.431 L 89.706012,153.431 L 88.986012,151.231 L 88.786011,149.951 C 88.785986,149.44434 88.879319,148.92434 89.066012,148.391 L 88.466011,148.391 L 87.386012,149.471 C 86.879321,149.87101 86.279322,150.23101 85.586011,150.551 C 84.919323,150.871 84.025991,151.20434 82.906012,151.551 C 81.785993,151.871 80.532661,152.12434 79.146011,152.311 C 77.785997,152.49767 76.252665,152.591 74.546012,152.591 C 70.146005,152.591 66.799341,151.68434 64.506011,149.871 C 62.506012,148.27101 61.506013,146.09767 61.506011,143.351 C 61.506013,141.35101 62.946012,138.52435 65.826011,134.871 C 68.972673,130.92436 72.759336,127.61769 77.186012,124.951 C 82.465992,121.75103 87.772654,120.15103 93.106012,120.151 C 94.225981,120.15103 95.132646,120.28437 95.826012,120.551 C 96.092646,120.6577 96.385979,120.80437 96.706012,120.991 C 97.025978,121.15103 97.505977,121.43103 98.146011,121.831 M 90.986012,140.991 L 90.026011,140.711 L 88.946011,140.791 L 87.626012,140.791 L 87.626012,141.671 L 88.546012,142.791 L 89.506011,144.191 L 90.266012,142.431 L 90.986012,140.991 M 115.92226,131.351 C 114.88224,131.56436 114.01557,131.87102 113.32226,132.271 C 112.76224,132.59102 112.26891,132.75102 111.84226,132.751 C 111.33558,132.75102 110.88224,132.37769 110.48226,131.631 C 110.10891,130.85769 109.66891,130.47102 109.16226,130.471 C 107.90891,130.47102 106.49558,131.61769 104.92226,133.911 C 103.24225,136.39102 102.40225,138.92435 102.40226,141.511 C 102.40225,142.47101 102.56225,143.45768 102.88226,144.471 L 102.88226,152.551 L 100.60226,152.551 C 100.04226,152.551 99.282258,151.271 98.322261,148.711 C 97.148927,145.48434 96.562261,141.96434 96.562262,138.151 L 96.522261,136.671 L 96.482262,135.431 C 96.482261,134.57769 96.588928,133.92435 96.802261,133.471 C 97.042261,133.01769 97.56226,132.47102 98.362262,131.831 L 99.682261,131.831 L 99.922262,132.871 L 99.962261,133.831 C 99.962258,134.04435 99.962258,134.24435 99.962261,134.431 C 99.882258,134.75102 99.828924,134.99102 99.802261,135.151 L 99.642262,136.191 C 99.642258,136.59102 99.815591,137.08435 100.16226,137.671 C 101.60226,134.04435 103.30892,131.33769 105.28226,129.551 C 106.90892,128.08436 108.65558,127.35103 110.52226,127.351 L 112.48226,128.111 C 113.68224,128.56436 114.82891,128.89769 115.92226,129.111 L 115.92226,131.351 M 152.07038,149.031 L 151.67038,149.471 C 150.92368,150.05767 149.57701,150.63101 147.63038,151.191 C 145.97702,151.64434 144.88369,151.871 144.35038,151.871 C 141.87036,151.871 139.67036,151.271 137.75038,150.071 L 132.99038,146.191 C 131.09703,147.71101 128.77704,149.11101 126.03038,150.391 C 123.28371,151.64434 120.60371,152.271 117.99038,152.271 C 117.43038,152.271 116.75038,152.00434 115.95038,151.471 C 115.15038,150.93767 114.75038,150.27101 114.75038,149.471 C 114.75038,147.09768 116.16371,144.79101 118.99038,142.551 C 122.13704,140.09768 125.85704,138.87101 130.15038,138.871 C 131.19037,138.87101 131.87037,138.44435 132.19038,137.591 C 132.3237,136.92435 132.4437,136.35102 132.55038,135.871 C 132.6837,135.36435 132.83036,134.88435 132.99038,134.431 C 131.89703,133.76435 130.45703,133.19102 128.67038,132.711 C 126.8837,132.23102 125.35037,131.99102 124.07038,131.991 C 123.13704,131.99102 122.44371,132.01769 121.99038,132.071 C 121.53704,132.09769 120.76371,132.17769 119.67038,132.311 C 118.60371,132.41769 117.76371,132.49769 117.15038,132.551 C 116.56371,132.60435 116.03038,132.63102 115.55038,132.631 L 113.59038,132.511 C 112.95038,132.43102 112.41705,132.28435 111.99038,132.071 C 111.56372,131.85769 111.35039,131.48436 111.35038,130.951 C 111.35039,130.39102 111.53705,129.93769 111.91038,129.591 C 112.01705,129.51102 112.39039,129.40436 113.03038,129.271 L 114.95038,129.151 C 115.53705,129.15102 116.17705,129.16436 116.87038,129.191 C 117.56371,129.21769 118.31038,129.27102 119.11038,129.351 C 119.59038,129.35102 120.29704,129.43102 121.23038,129.591 C 123.84371,129.59102 126.27037,129.79102 128.51038,130.191 C 131.47037,130.72436 133.8037,131.59102 135.51038,132.791 C 137.61703,134.25769 138.67036,136.15102 138.67038,138.471 C 138.67036,139.13768 138.27036,139.88435 137.47038,140.711 C 136.67036,141.53768 136.27036,142.41768 136.27038,143.351 C 136.27036,144.97767 137.31036,146.47101 139.39038,147.831 C 141.47036,149.19101 143.80369,149.87101 146.39038,149.871 C 146.92368,149.87101 147.71035,149.77767 148.75038,149.591 C 149.89701,149.43101 150.72368,149.24434 151.23038,149.031 L 152.07038,149.031 M 132.59038,143.751 L 132.23038,142.151 C 132.07037,141.59101 131.37703,141.31101 130.15038,141.311 C 126.8437,141.31101 123.72371,142.33768 120.79038,144.391 C 118.39038,146.07101 117.19038,147.33768 117.19038,148.191 C 117.19038,148.64434 117.35038,149.05767 117.67038,149.431 C 117.83038,149.56434 118.03038,149.67101 118.27038,149.751 C 118.51038,149.83101 118.81705,149.87101 119.19038,149.871 C 121.32371,149.87101 123.95037,148.99101 127.07038,147.231 L 132.59038,143.751 M 162.92163,139.711 C 162.92161,141.39101 162.21495,142.77768 160.80163,143.871 C 159.28162,145.07101 157.20162,145.67101 154.56163,145.671 C 153.94829,145.67101 153.22829,145.59101 152.40163,145.431 C 151.57496,145.27101 150.98829,145.19101 150.64163,145.191 L 149.68163,145.311 L 148.60163,145.671 L 148.60163,147.271 L 149.56163,152.351 L 150.56163,157.991 L 151.44163,161.391 C 151.44163,161.73766 151.41496,162.01766 151.36163,162.231 L 151.52163,162.391 L 151.72163,162.791 C 151.72163,162.97766 151.52163,163.15099 151.12163,163.311 C 150.74829,163.47099 150.04163,163.55099 149.00163,163.551 C 148.81496,163.36433 148.65496,163.19099 148.52163,163.031 C 148.3883,162.89766 148.17496,162.61766 147.88163,162.191 C 147.05496,161.01766 146.3483,159.60433 145.76163,157.951 C 144.9883,155.68433 144.60163,153.311 144.60163,150.831 L 144.60163,147.271 C 144.60163,141.80434 144.81497,138.05768 145.24163,136.031 C 146.17496,131.57769 148.21496,129.35102 151.36163,129.351 C 153.78829,129.35102 156.28162,130.45769 158.84163,132.671 C 161.56162,134.99102 162.92161,137.33768 162.92163,139.711 M 160.12163,140.111 C 160.12162,138.27102 159.06828,136.53768 156.96163,134.911 C 155.17496,133.57769 153.44162,132.79102 151.76163,132.551 L 149.00163,133.511 C 148.78829,134.36435 148.68163,135.05768 148.68163,135.591 L 148.88163,138.631 L 149.00163,141.711 L 152.16163,142.431 C 153.33496,142.72434 154.53496,142.87101 155.76163,142.871 C 157.49495,142.87101 158.65495,142.71101 159.24163,142.391 C 159.82828,142.07101 160.12162,141.31101 160.12163,140.111 M 180.62038,153.711 C 179.76703,154.111 179.06037,154.48433 178.50038,154.831 L 177.42038,155.471 C 175.98037,155.471 174.92704,154.41767 174.26038,152.311 C 174.04704,151.61767 173.76704,150.23101 173.42038,148.151 C 172.83371,144.57768 172.40704,142.65768 172.14038,142.391 C 171.66037,142.73768 170.94038,143.61768 169.98038,145.031 C 169.26038,146.97767 168.60704,148.60434 168.02038,149.911 C 167.43371,151.21767 166.88705,152.00434 166.38038,152.271 C 166.14038,151.65767 165.94038,150.92434 165.78038,150.071 C 165.67371,149.24434 165.60705,148.68434 165.58038,148.391 C 165.58038,148.09767 165.58038,147.85767 165.58038,147.671 C 165.58038,146.71101 165.50038,145.71101 165.34038,144.671 C 165.39371,144.35101 165.42038,144.11101 165.42038,143.951 C 165.42038,143.84434 165.39371,143.67101 165.34038,143.431 C 165.28705,143.19101 165.16705,142.83101 164.98038,142.351 L 164.18038,137.711 L 162.62038,128.631 L 161.78038,123.551 L 161.54038,122.391 L 161.26038,121.111 C 161.26038,120.76437 161.32705,120.4177 161.46038,120.071 C 161.54038,119.75103 161.76705,119.36437 162.14038,118.911 C 163.18038,119.15103 163.90038,120.08437 164.30038,121.711 C 164.51371,123.4977 164.67371,124.83103 164.78038,125.711 C 164.99371,127.36436 165.30038,129.59102 165.70038,132.391 C 165.83371,133.05769 165.99371,133.97769 166.18038,135.151 C 166.39371,136.32435 166.58038,137.49768 166.74038,138.671 C 167.11371,141.41768 167.30038,143.61768 167.30038,145.271 C 167.30038,146.44434 167.23371,147.24434 167.10038,147.671 L 168.42038,143.111 C 168.84704,142.25768 169.23371,141.61768 169.58038,141.191 C 170.30038,140.36435 170.67371,139.92435 170.70038,139.871 C 170.96704,139.47101 171.24704,139.07101 171.54038,138.671 C 171.99371,138.08435 172.48704,137.79102 173.02038,137.791 C 173.90037,137.79102 174.52704,138.67101 174.90038,140.431 C 175.38037,143.20434 175.76704,144.85768 176.06038,145.391 C 176.72704,147.20434 177.30037,148.63101 177.78038,149.671 C 178.7137,151.64434 179.66037,152.631 180.62038,152.631 L 180.62038,153.711 M 199.20351,131.351 C 198.16349,131.56436 197.29682,131.87102 196.60351,132.271 C 196.04349,132.59102 195.55016,132.75102 195.12351,132.751 C 194.61683,132.75102 194.16349,132.37769 193.76351,131.631 C 193.39016,130.85769 192.95016,130.47102 192.44351,130.471 C 191.19016,130.47102 189.77683,131.61769 188.20351,133.911 C 186.5235,136.39102 185.6835,138.92435 185.68351,141.511 C 185.6835,142.47101 185.8435,143.45768 186.16351,144.471 L 186.16351,152.551 L 183.88351,152.551 C 183.3235,152.551 182.5635,151.271 181.60351,148.711 C 180.43017,145.48434 179.84351,141.96434 179.84351,138.151 L 179.80351,136.671 L 179.76351,135.431 C 179.76351,134.57769 179.87017,133.92435 180.08351,133.471 C 180.32351,133.01769 180.84351,132.47102 181.64351,131.831 L 182.96351,131.831 L 183.20351,132.871 L 183.24351,133.831 C 183.2435,134.04435 183.2435,134.24435 183.24351,134.431 C 183.1635,134.75102 183.11017,134.99102 183.08351,135.151 L 182.92351,136.191 C 182.9235,136.59102 183.09684,137.08435 183.44351,137.671 C 184.8835,134.04435 186.59017,131.33769 188.56351,129.551 C 190.19016,128.08436 191.93683,127.35103 193.80351,127.351 L 195.76351,128.111 C 196.96349,128.56436 198.11016,128.89769 199.20351,129.111 L 199.20351,131.351 M 227.39163,150.911 C 227.3916,151.36434 227.1516,151.871 226.67163,152.431 C 226.0316,153.151 225.23161,153.511 224.27163,153.511 C 223.60494,153.511 222.51161,153.391 220.99163,153.151 C 219.49828,152.911 217.49828,152.53767 214.99163,152.031 C 210.24495,151.04434 207.43162,150.32434 206.55163,149.871 C 203.61829,148.48434 201.60496,147.33768 200.51163,146.431 C 200.35163,146.27101 200.0583,145.96434 199.63163,145.511 C 199.20496,145.05767 198.6983,144.45768 198.11163,143.711 L 196.43163,143.831 C 194.88497,143.83101 193.6183,143.45768 192.63163,142.711 C 191.51164,141.83101 190.95164,140.92435 190.95163,139.991 C 190.95164,139.45768 191.19164,139.00435 191.67163,138.631 C 192.12497,138.25768 192.75164,138.01768 193.55163,137.911 L 194.79163,139.111 L 195.63163,139.871 L 198.75163,139.991 C 198.75163,137.32435 200.00496,135.03102 202.51163,133.111 C 204.35163,131.75102 206.96496,130.55102 210.35163,129.511 C 211.28495,129.24436 212.19162,129.07102 213.07163,128.991 L 215.31163,128.831 C 217.81828,128.83102 220.01828,129.40436 221.91163,130.551 C 223.83161,131.67102 224.79161,133.08435 224.79163,134.791 C 224.79161,135.67102 224.12494,136.69768 222.79163,137.871 C 221.24494,139.23101 219.08494,140.37768 216.31163,141.311 C 212.89828,142.40434 208.97829,142.95101 204.55163,142.951 L 203.79163,142.871 C 203.44496,142.87101 203.25829,142.96434 203.23163,143.151 C 203.23163,143.28434 203.51163,143.63101 204.07163,144.191 L 205.23163,145.191 L 210.19163,148.191 C 212.51162,148.99101 215.45828,149.39101 219.03163,149.391 C 220.28494,149.39101 221.07161,149.15101 221.39163,148.671 C 221.73828,148.05767 222.52494,147.59101 223.75163,147.271 L 225.31163,147.271 L 227.39163,150.911 M 221.15163,135.551 C 220.67161,134.21769 219.79161,133.28435 218.51163,132.751 C 217.47161,132.37769 215.75161,132.19102 213.35163,132.191 C 210.52495,132.19102 208.09829,132.92435 206.07163,134.391 C 204.20496,135.72435 202.63163,137.76435 201.35163,140.511 C 201.75163,140.35101 202.0583,140.27101 202.27163,140.271 L 202.87163,140.391 L 203.43163,140.511 C 206.73829,140.51101 210.43162,139.97768 214.51163,138.911 C 218.59161,137.81768 220.80494,136.69768 221.15163,135.551 M 260.89101,126.231 L 259.17101,132.231 L 257.49101,137.671 C 256.05098,141.80434 254.53098,145.17767 252.93101,147.791 C 250.69098,151.44434 248.47765,153.271 246.29101,153.271 C 245.65099,153.271 245.05099,152.85767 244.49101,152.031 C 242.89099,148.77767 241.34432,145.75101 239.85101,142.951 L 239.25101,143.631 L 239.05101,143.791 L 239.29101,143.671 C 239.37099,143.91101 239.41099,144.11101 239.41101,144.271 C 239.41099,144.69768 238.57099,145.95101 236.89101,148.031 C 234.94433,150.37767 233.35766,151.551 232.13101,151.551 C 230.851,151.551 229.51767,150.28434 228.13101,147.751 C 227.14434,145.93767 226.15767,143.55101 225.17101,140.591 L 223.97101,136.511 C 223.73101,136.05768 223.31767,135.63102 222.73101,135.231 C 222.17101,134.93769 221.86434,134.65769 221.81101,134.391 C 221.81101,133.29769 221.97101,132.36435 222.29101,131.591 C 222.74434,130.60436 223.45101,130.11102 224.41101,130.111 C 225.07767,130.11102 225.87767,131.57769 226.81101,134.511 C 227.771,137.41768 228.251,139.37768 228.25101,140.391 C 228.251,140.95101 228.67767,142.12434 229.53101,143.911 C 230.491,145.96434 231.50433,147.51101 232.57101,148.551 C 234.91766,146.60434 236.411,144.09768 237.05101,141.031 L 237.49101,134.311 C 237.49099,132.36435 238.13099,131.39102 239.41101,131.391 L 239.65101,131.511 L 240.25101,131.551 C 240.43766,131.55102 240.63766,131.55102 240.85101,131.551 C 241.17099,131.47102 241.41099,131.41769 241.57101,131.391 C 241.57099,131.73769 241.62432,132.33769 241.73101,133.191 C 241.83766,134.04435 242.01099,135.16435 242.25101,136.551 C 242.81099,139.91101 243.45099,142.72434 244.17101,144.991 C 245.13099,147.95101 246.13099,149.43101 247.17101,149.431 C 248.93098,149.43101 250.53098,147.32434 251.97101,143.111 C 252.21098,142.41768 252.58431,141.05768 253.09101,139.031 C 253.59764,136.97768 254.21098,134.40435 254.93101,131.311 C 255.89098,127.07103 256.73097,124.95103 257.45101,124.951 C 257.74431,124.95103 258.02431,125.08436 258.29101,125.351 C 258.93097,125.93769 259.79764,126.23103 260.89101,126.231 M 278.50038,131.351 C 277.46036,131.56436 276.5937,131.87102 275.90038,132.271 C 275.34037,132.59102 274.84703,132.75102 274.42038,132.751 C 273.9137,132.75102 273.46037,132.37769 273.06038,131.631 C 272.68704,130.85769 272.24704,130.47102 271.74038,130.471 C 270.48704,130.47102 269.07371,131.61769 267.50038,133.911 C 265.82038,136.39102 264.98038,138.92435 264.98038,141.511 C 264.98038,142.47101 265.14038,143.45768 265.46038,144.471 L 265.46038,152.551 L 263.18038,152.551 C 262.62038,152.551 261.86038,151.271 260.90038,148.711 C 259.72705,145.48434 259.14038,141.96434 259.14038,138.151 L 259.10038,136.671 L 259.06038,135.431 C 259.06038,134.57769 259.16705,133.92435 259.38038,133.471 C 259.62038,133.01769 260.14038,132.47102 260.94038,131.831 L 262.26038,131.831 L 262.50038,132.871 L 262.54038,133.831 C 262.54038,134.04435 262.54038,134.24435 262.54038,134.431 C 262.46038,134.75102 262.40705,134.99102 262.38038,135.151 L 262.22038,136.191 C 262.22038,136.59102 262.39371,137.08435 262.74038,137.671 C 264.18038,134.04435 265.88704,131.33769 267.86038,129.551 C 269.48704,128.08436 271.2337,127.35103 273.10038,127.351 L 275.06038,128.111 C 276.26036,128.56436 277.40703,128.89769 278.50038,129.111 L 278.50038,131.351 M 286.12851,117.711 C 286.1285,118.75103 285.9685,119.44437 285.64851,119.791 C 285.3285,120.11103 284.6485,120.43103 283.60851,120.751 L 283.12851,119.191 C 282.9685,118.39103 282.8885,117.6977 282.88851,117.111 C 282.8885,116.60437 282.9285,116.24437 283.00851,116.031 C 283.11517,115.79104 283.31517,115.67104 283.60851,115.671 C 284.54183,115.67104 285.19517,115.79104 285.56851,116.031 C 285.94183,116.24437 286.1285,116.80437 286.12851,117.711 M 301.92851,141.391 L 301.88851,141.791 C 301.86182,141.92434 301.83515,142.00434 301.80851,142.031 C 301.80848,144.37768 300.23515,146.39101 297.08851,148.071 C 293.19516,150.09767 289.70183,151.111 286.60851,151.111 C 284.47517,151.111 283.03517,150.57767 282.28851,149.511 C 282.10184,149.21767 281.59517,147.72434 280.76851,145.031 C 280.4485,145.11101 280.0485,145.31101 279.56851,145.631 L 279.00851,146.071 L 274.44851,146.071 L 274.44851,143.551 C 277.48851,142.75101 279.62184,141.60435 280.84851,140.111 C 281.59517,139.15101 282.19517,137.56435 282.64851,135.351 C 283.1285,133.13769 283.70183,131.45769 284.36851,130.311 L 286.92851,131.311 C 287.46183,131.55102 288.1285,132.05769 288.92851,132.831 C 287.62183,134.45769 286.5685,136.33768 285.76851,138.471 C 284.9685,140.57768 284.5685,142.60434 284.56851,144.551 C 284.5685,145.75101 284.8485,146.72434 285.40851,147.471 C 285.9685,148.21767 286.70183,148.59101 287.60851,148.591 C 288.14183,148.59101 289.27516,148.39101 291.00851,147.991 C 293.67516,147.37768 295.79516,146.60434 297.36851,145.671 C 299.63515,144.36434 300.76848,142.80434 300.76851,140.991 L 301.40851,140.871 L 301.80851,140.991 C 301.88848,141.07101 301.92848,141.20435 301.92851,141.391 M 316.49476,137.911 L 316.49476,138.351 C 316.49474,138.61768 316.38807,138.85768 316.17476,139.071 C 315.98807,139.36435 315.85474,139.57768 315.77476,139.711 C 315.61474,139.95101 315.33474,140.07101 314.93476,140.071 C 314.85474,140.07101 314.65474,140.04435 314.33476,139.991 C 313.64141,139.72435 313.09474,139.53768 312.69476,139.431 C 311.36141,139.03101 310.30808,138.83101 309.53476,138.831 C 308.86808,138.83101 308.38808,138.97768 308.09476,139.271 C 307.98808,139.37768 307.90808,139.73768 307.85476,140.351 C 307.80142,140.96435 307.77475,141.73768 307.77476,142.671 C 307.77475,144.45768 307.84142,146.59101 307.97476,149.071 C 308.00142,149.95101 308.08141,151.12434 308.21476,152.591 L 306.29476,152.591 C 305.57475,152.431 304.05475,151.231 301.73476,148.991 C 300.93476,148.21767 300.18809,146.85767 299.49476,144.911 C 298.45476,142.00434 297.93476,139.87101 297.93476,138.511 C 297.93476,137.47102 299.05476,136.95102 301.29476,136.951 C 303.56142,136.95102 304.69475,136.48435 304.69476,135.551 C 304.69475,135.15102 304.57475,134.32435 304.33476,133.071 C 304.09475,131.79102 303.86809,130.72436 303.65476,129.871 C 302.93475,126.93769 302.57475,125.27103 302.57476,124.871 L 297.57476,111.031 L 298.45476,109.751 C 298.69476,109.48438 299.04142,109.33771 299.49476,109.311 C 299.92142,109.31104 300.93476,111.45771 302.53476,115.751 C 304.16142,120.04437 305.20142,123.31103 305.65476,125.551 L 307.45476,136.231 C 307.64142,136.39102 308.22808,136.57768 309.21476,136.791 C 310.22808,136.97768 311.09475,137.07102 311.81476,137.071 C 313.97474,137.07102 315.29474,137.11102 315.77476,137.191 C 316.25474,137.27102 316.49474,137.51102 316.49476,137.911 M 305.61476,149.591 C 305.72142,148.76434 305.78808,148.08434 305.81476,147.551 C 305.94808,145.95101 306.01475,144.53768 306.01476,143.311 C 306.01475,142.11101 305.94808,141.15101 305.81476,140.431 C 305.70808,139.68435 305.49475,139.24435 305.17476,139.111 C 304.88142,138.97768 304.53475,138.88435 304.13476,138.831 C 303.76142,138.77768 303.38809,138.75101 303.01476,138.751 C 302.32142,138.75101 301.65475,138.83101 301.01476,138.991 C 300.37476,139.15101 300.05476,139.28435 300.05476,139.391 C 300.05476,139.55101 300.14809,140.00435 300.33476,140.751 C 300.44142,141.23101 300.56142,141.71101 300.69476,142.191 C 300.93476,143.33768 301.70809,144.81768 303.01476,146.631 C 304.18809,148.25767 305.05475,149.24434 305.61476,149.591 M 341.68851,150.911 C 341.68848,151.36434 341.44848,151.871 340.96851,152.431 C 340.32848,153.151 339.52848,153.511 338.56851,153.511 C 337.90182,153.511 336.80848,153.391 335.28851,153.151 C 333.79515,152.911 331.79515,152.53767 329.28851,152.031 C 324.54183,151.04434 321.7285,150.32434 320.84851,149.871 C 317.91517,148.48434 315.90184,147.33768 314.80851,146.431 C 314.64851,146.27101 314.35517,145.96434 313.92851,145.511 C 313.50184,145.05767 312.99517,144.45768 312.40851,143.711 L 310.72851,143.831 C 309.18184,143.83101 307.91518,143.45768 306.92851,142.711 C 305.80851,141.83101 305.24851,140.92435 305.24851,139.991 C 305.24851,139.45768 305.48851,139.00435 305.96851,138.631 C 306.42185,138.25768 307.04851,138.01768 307.84851,137.911 L 309.08851,139.111 L 309.92851,139.871 L 313.04851,139.991 C 313.04851,137.32435 314.30184,135.03102 316.80851,133.111 C 318.6485,131.75102 321.26183,130.55102 324.64851,129.511 C 325.58183,129.24436 326.48849,129.07102 327.36851,128.991 L 329.60851,128.831 C 332.11515,128.83102 334.31515,129.40436 336.20851,130.551 C 338.12848,131.67102 339.08848,133.08435 339.08851,134.791 C 339.08848,135.67102 338.42181,136.69768 337.08851,137.871 C 335.54182,139.23101 333.38182,140.37768 330.60851,141.311 C 327.19516,142.40434 323.27516,142.95101 318.84851,142.951 L 318.08851,142.871 C 317.74184,142.87101 317.55517,142.96434 317.52851,143.151 C 317.5285,143.28434 317.8085,143.63101 318.36851,144.191 L 319.52851,145.191 L 324.48851,148.191 C 326.80849,148.99101 329.75516,149.39101 333.32851,149.391 C 334.58182,149.39101 335.36848,149.15101 335.68851,148.671 C 336.03515,148.05767 336.82182,147.59101 338.04851,147.271 L 339.60851,147.271 L 341.68851,150.911 M 335.44851,135.551 C 334.96849,134.21769 334.08849,133.28435 332.80851,132.751 C 331.76849,132.37769 330.04849,132.19102 327.64851,132.191 C 324.82183,132.19102 322.39516,132.92435 320.36851,134.391 C 318.50183,135.72435 316.9285,137.76435 315.64851,140.511 C 316.0485,140.35101 316.35517,140.27101 316.56851,140.271 L 317.16851,140.391 L 317.72851,140.511 C 321.03517,140.51101 324.7285,139.97768 328.80851,138.911 C 332.88849,137.81768 335.10182,136.69768 335.44851,135.551"
       id="flowRoot2393" />
    <text
       xml:space="preserve"
       style="font-size:16px;font-style:italic;font-variant:normal;font-weight:normal;font-stretch:normal;text-align:start;line-height:100%;writing-mode:lr-tb;text-anchor:start;fill:#000000;fill-opacity:1;stroke:none;stroke-width:1px;stroke-linecap:butt;stroke-linejoin:miter;stroke-opacity:1;font-family:Steve;-inkscape-font-specification:Steve Italic"
       x="15.294124"
       y="293.52942"
       id="text2389"
       sodipodi:linespacing="100%"><tspan
         sodipodi:role="line"
         id="tspan2391"
         x="15.294124"
         y="293.52942">d goes one level deeper</tspan><tspan
         sodipodi:role="line"
         x="15.294124"
         y="309.52942"
         id="tspan2393">u goes one level higher</tspan><tspan
         sodipodi:role="line"
         x="15.294124"
         y="325.52942"
         id="tspan2395">l shifts to the left</tspan><tspan
         sodipodi:role="line"
         x="15.294124"
         y="341.52942"
         id="tspan2397">r shifts to the right</tspan></text>
    <text
       xml:space="preserve"
       style="font-size:16px;font-style:italic;font-variant:normal;font-weight:normal;font-stretch:normal;text-align:end;line-height:120.00000477%;writing-mode:lr-tb;text-anchor:end;fill:#000000;fill-opacity:1;stroke:none;stroke-width:1px;stroke-linecap:butt;stroke-linejoin:miter;stroke-opacity:1;font-family:Steve;-inkscape-font-specification:Steve Italic"
       x="382.35294"
       y="293.52942"
       id="text2399"
       sodipodi:linespacing="120%"><tspan
         sodipodi:role="line"
         id="tspan2413"
         x="382.35294"
         y="293.52942">space = r</tspan><tspan
         sodipodi:role="line"
         id="tspan2415"
         x="382.35294"
         y="312.72943">backspace = l</tspan><tspan
         sodipodi:role="line"
         id="tspan2417"
         x="382.35294"
         y="331.92941">q = quit</tspan></text>
  </g>
  <text
     xml:space="preserve"
     style="font-size:40px;font-style:normal;font-variant:normal;font-weight:normal;font-stretch:normal;text-align:center;line-height:125%;writing-mode:lr-tb;text-anchor:middle;fill:#000000;fill-opacity:1;stroke:none;stroke-width:1px;stroke-linecap:butt;stroke-linejoin:miter;stroke-opacity:1;font-family:Penguin Attack;-inkscape-font-specification:Penguin Attack"
     x="200.58824"
     y="211.17647"
     id="text3718"
     sodipodi:linespacing="125%"><tspan
       sodipodi:role="line"
       id="tspan3720"
       x="200.58824"
       y="211.17647">v0.4</tspan></text>
</svg>
