<?xml version="1.0" encoding="UTF-8" standalone="no"?>
<!-- Created with Inkscape (http://www.inkscape.org/) -->
<svg
   xmlns:dc="http://purl.org/dc/elements/1.1/"
   xmlns:cc="http://creativecommons.org/ns#"
   xmlns:rdf="http://www.w3.org/1999/02/22-rdf-syntax-ns#"
   xmlns:svg="http://www.w3.org/2000/svg"
   xmlns="http://www.w3.org/2000/svg"
   xmlns:sodipodi="http://sodipodi.sourceforge.net/DTD/sodipodi-0.dtd"
   xmlns:inkscape="http://www.inkscape.org/namespaces/inkscape"
   width="400"
   height="400"
   id="svg2"
   sodipodi:version="0.32"
   inkscape:version="0.46"
   version="1.0"
   sodipodi:docname="splash.svg"
   inkscape:output_extension="org.inkscape.output.svg.inkscape">
  <defs
     id="defs4">
    <inkscape:perspective
       sodipodi:type="inkscape:persp3d"
       inkscape:vp_x="0 : 526.18109 : 1"
       inkscape:vp_y="0 : 1000 : 0"
       inkscape:vp_z="744.09448 : 526.18109 : 1"
       inkscape:persp3d-origin="372.04724 : 350.78739 : 1"
       id="perspective10" />
  </defs>
  <sodipodi:namedview
     id="base"
     pagecolor="#ffffff"
     bordercolor="#666666"
     borderopacity="1.0"
     gridtolerance="10000"
     guidetolerance="10"
     objecttolerance="10"
     inkscape:pageopacity="0.0"
     inkscape:pageshadow="2"
     inkscape:zoom="1.7"
     inkscape:cx="200"
     inkscape:cy="200"
     inkscape:document-units="px"
     inkscape:current-layer="layer1"
     showgrid="false"
     inkscape:window-width="1271"
     inkscape:window-height="916"
     inkscape:window-x="192"
     inkscape:window-y="11" />
  <metadata
     id="metadata7">
    <rdf:RDF>
      <cc:Work
         rdf:about="">
        <dc:format>image/svg+xml</dc:format>
        <dc:type
           rdf:resource="http://purl.org/dc/dcmitype/StillImage" />
      </cc:Work>
    </rdf:RDF>
  </metadata>
  <g
     inkscape:label="Layer 1"
     inkscape:groupmode="layer"
     id="layer1">
    <path
       transform="translate(8.8235294,122.94118)"
       style="font-size:40px;font-style:italic;font-variant:normal;font-weight:bold;font-stretch:normal;text-align:center;writing-mode:lr-tb;text-anchor:middle;fill:#000000;fill-opacity:1;stroke:#000000;stroke-width:1px;stroke-linecap:butt;stroke-linejoin:miter;stroke-opacity:1;font-family:Steve;-inkscape-font-specification:Steve Bold Italic"
       d="M 142.96344,26.612174 L 142.68344,25.852174 L 142.72344,26.412174 L 142.76344,27.132174 L 142.76344,27.612174 C 142.76341,27.772201 142.73674,27.958867 142.68344,28.172174 C 142.68341,28.358867 142.59008,28.5322 142.40344,28.692174 L 142.00344,27.292174 C 141.95008,27.052202 141.91008,26.825535 141.88344,26.612174 C 141.85675,26.398869 141.79008,26.145536 141.68344,25.852174 C 141.39008,26.198869 141.04341,27.052202 140.64344,28.412174 L 139.20344,33.212174 L 137.60344,37.372174 L 134.56344,45.452174 C 133.47009,48.518847 132.92342,50.305512 132.92344,50.812174 L 132.60344,51.492174 L 131.84344,53.412174 L 130.60344,55.092174 C 130.28342,55.572173 129.63009,55.905506 128.64344,56.092174 C 127.52343,55.292173 126.05676,52.932176 124.24344,49.012174 C 122.45676,45.092184 121.1901,41.678854 120.44344,38.772174 L 119.24344,34.412174 L 118.52344,32.252174 L 118.28344,31.132174 L 118.16344,30.572174 L 117.40344,27.252174 C 117.00344,26.798869 116.68344,26.158869 116.44344,25.332174 C 116.17677,24.478871 116.04344,23.385539 116.04344,22.052174 C 116.04344,21.572207 116.13677,21.225541 116.32344,21.012174 L 116.84344,20.452174 L 118.04344,20.452174 C 118.52344,20.532208 118.8701,20.718875 119.08344,21.012174 C 119.45677,21.545541 119.64343,22.292206 119.64344,23.252174 L 120.08344,25.452174 C 120.88343,29.372199 121.40343,32.092197 121.64344,33.612174 L 122.56344,36.972174 L 122.96344,38.692174 L 126.44344,47.972174 C 126.44343,48.212181 126.64343,48.53218 127.04344,48.932174 C 127.44343,49.305513 127.64343,49.652179 127.64344,49.972174 C 127.64343,50.345512 128.03009,50.732178 128.80344,51.132174 L 130.00344,51.532174 C 131.28342,48.865513 132.47009,46.252182 133.56344,43.692174 C 134.55009,41.398854 135.51009,39.01219 136.44344,36.532174 L 139.16344,28.572174 C 139.80341,26.758869 140.63008,25.425537 141.64344,24.572174 C 141.99008,24.572204 142.32341,24.878871 142.64344,25.492174 C 142.80341,25.865536 142.91008,26.238869 142.96344,26.612174 M 151.56969,20.652174 C 151.56968,21.692207 151.40968,22.38554 151.08969,22.732174 C 150.76968,23.052206 150.08968,23.372205 149.04969,23.692174 L 148.56969,22.132174 C 148.40968,21.332207 148.32968,20.638875 148.32969,20.052174 C 148.32968,19.545543 148.36968,19.185543 148.44969,18.972174 C 148.55635,18.73221 148.75635,18.61221 149.04969,18.612174 C 149.98301,18.61221 150.63635,18.73221 151.00969,18.972174 C 151.38301,19.185543 151.56968,19.745542 151.56969,20.652174 M 167.36969,44.332174 L 167.32969,44.732174 C 167.303,44.865517 167.27633,44.945517 167.24969,44.972174 C 167.24966,47.318848 165.67633,49.332179 162.52969,51.012174 C 158.63634,53.038842 155.14301,54.052175 152.04969,54.052174 C 149.91635,54.052175 148.47635,53.518842 147.72969,52.452174 C 147.54302,52.158843 147.03635,50.665511 146.20969,47.972174 C 145.88968,48.052181 145.48968,48.25218 145.00969,48.572174 L 144.44969,49.012174 L 139.88969,49.012174 L 139.88969,46.492174 C 142.92969,45.692183 145.06302,44.545518 146.28969,43.052174 C 147.03635,42.092187 147.63635,40.505522 148.08969,38.292174 C 148.56968,36.078859 149.14301,34.398861 149.80969,33.252174 L 152.36969,34.252174 C 152.90301,34.492194 153.56968,34.99886 154.36969,35.772174 C 153.06301,37.398858 152.00968,39.278856 151.20969,41.412174 C 150.40968,43.518852 150.00968,45.545517 150.00969,47.492174 C 150.00968,48.69218 150.28968,49.665512 150.84969,50.412174 C 151.40968,51.158844 152.14301,51.532177 153.04969,51.532174 C 153.58301,51.532177 154.71634,51.332177 156.44969,50.932174 C 159.11634,50.318845 161.23634,49.545513 162.80969,48.612174 C 165.07633,47.305515 166.20966,45.745516 166.20969,43.932174 L 166.84969,43.812174 L 167.24969,43.932174 C 167.32966,44.012185 167.36966,44.145518 167.36969,44.332174 M 192.69594,50.692174 C 192.69591,51.332177 192.08258,52.132177 190.85594,53.092174 C 189.36258,54.265508 187.66925,54.852174 185.77594,54.852174 L 175.61594,54.852174 C 172.86926,54.532174 170.78926,54.252174 169.37594,54.012174 C 165.21594,53.292175 163.13594,52.50551 163.13594,51.652174 C 163.13594,50.958844 163.54927,50.292178 164.37594,49.652174 L 169.61594,47.052174 L 171.49594,47.052174 L 171.49594,48.412174 C 170.18926,48.998846 169.41593,49.385513 169.17594,49.572174 L 168.25594,50.452174 C 168.89593,51.092178 170.30926,51.692177 172.49594,52.252174 C 173.58926,52.492176 174.76259,52.678843 176.01594,52.812174 C 177.29592,52.945509 178.70926,53.012176 180.25594,53.012174 C 181.05592,53.012176 181.61592,52.998842 181.93594,52.972174 C 182.25592,52.945509 182.96259,52.838843 184.05594,52.652174 C 186.77592,52.252176 188.58925,51.598844 189.49594,50.692174 C 188.26925,49.758846 185.30925,48.598847 180.61594,47.212174 C 175.38926,45.692183 171.78926,44.372184 169.81594,43.252174 C 166.3226,41.332187 164.57594,38.89219 164.57594,35.932174 C 164.57594,33.798862 165.1626,32.438863 166.33594,31.852174 C 167.0826,31.505531 168.6426,31.332197 171.01594,31.332174 C 172.74926,31.332197 174.00259,31.425531 174.77594,31.612174 C 175.57593,31.772197 176.30926,32.14553 176.97594,32.732174 L 176.97594,34.132174 C 175.61593,34.692194 174.73593,34.972194 174.33594,34.972174 C 174.17593,34.972194 174.05593,34.838861 173.97594,34.572174 C 173.94926,34.305528 173.72259,34.158861 173.29594,34.132174 L 170.53594,35.132174 C 168.69593,35.852193 167.7626,36.425526 167.73594,36.852174 C 167.73593,38.878857 169.8826,40.825521 174.17594,42.692174 L 186.21594,46.852174 C 190.53591,48.29218 192.69591,49.572179 192.69594,50.692174 M 213.67031,40.932174 C 213.67029,44.532184 212.57696,47.718848 210.39031,50.492174 C 207.9903,53.532175 204.84363,55.052174 200.95031,55.052174 C 198.49697,55.052174 196.39031,53.678842 194.63031,50.932174 C 193.21698,48.665513 192.51031,46.425516 192.51031,44.212174 L 192.51031,40.012174 L 192.27031,38.812174 C 192.19031,38.278857 192.12365,37.772191 192.07031,37.292174 C 192.01698,36.812192 191.99031,36.372192 191.99031,35.972174 C 191.99031,34.745527 192.12365,33.638862 192.39031,32.652174 C 192.68365,31.66553 193.19031,30.812198 193.91031,30.092174 L 194.35031,30.052174 L 194.99031,30.012174 L 195.95031,30.132174 C 196.21698,30.212199 196.44364,30.452198 196.63031,30.852174 C 196.81697,31.252197 196.91031,31.692197 196.91031,32.172174 C 196.91031,32.572196 196.87031,33.012196 196.79031,33.492174 C 196.71031,33.945528 196.56364,34.492194 196.35031,35.132174 C 196.27031,35.452193 196.20364,35.67886 196.15031,35.812174 C 196.12364,35.945526 196.00364,36.238859 195.79031,36.692174 L 195.19031,39.132174 C 194.95031,40.332188 194.83031,41.092188 194.83031,41.412174 C 194.83031,44.718851 195.65698,47.478848 197.31031,49.692174 C 198.80364,51.692177 200.80364,52.692176 203.31031,52.692174 C 205.01697,52.692176 206.61696,51.82551 208.11031,50.092174 C 209.92363,48.038847 210.83029,45.465517 210.83031,42.372174 C 210.83029,39.545523 210.31029,37.292191 209.27031,35.612174 C 208.76363,34.758861 208.5103,34.025528 208.51031,33.412174 C 208.5103,32.852196 208.6703,32.46553 208.99031,32.252174 C 209.3103,32.092197 209.77696,32.012197 210.39031,32.012174 C 211.48363,32.012197 212.35029,33.105529 212.99031,35.292174 C 213.44362,36.972192 213.67029,38.85219 213.67031,40.932174 M 251.88656,51.972174 L 251.48656,52.412174 C 250.73986,52.998842 249.39319,53.572175 247.44656,54.132174 C 245.7932,54.585507 244.69987,54.812174 244.16656,54.812174 C 241.68654,54.812174 239.48654,54.212175 237.56656,53.012174 L 232.80656,49.132174 C 230.91321,50.652178 228.59322,52.052177 225.84656,53.332174 C 223.09989,54.585507 220.41989,55.212174 217.80656,55.212174 C 217.24656,55.212174 216.56656,54.945507 215.76656,54.412174 C 214.96656,53.878842 214.56656,53.212176 214.56656,52.412174 C 214.56656,50.038845 215.97989,47.732181 218.80656,45.492174 C 221.95322,43.038852 225.67322,41.812187 229.96656,41.812174 C 231.00655,41.812187 231.68655,41.385521 232.00656,40.532174 C 232.13988,39.865522 232.25988,39.292189 232.36656,38.812174 C 232.49988,38.305524 232.64654,37.825524 232.80656,37.372174 C 231.71321,36.705525 230.27321,36.132193 228.48656,35.652174 C 226.69988,35.172194 225.16655,34.932194 223.88656,34.932174 C 222.95322,34.932194 222.25989,34.95886 221.80656,35.012174 C 221.35322,35.03886 220.57989,35.11886 219.48656,35.252174 C 218.41989,35.35886 217.57989,35.43886 216.96656,35.492174 C 216.37989,35.545527 215.84656,35.572193 215.36656,35.572174 L 213.40656,35.452174 C 212.76656,35.372193 212.23323,35.225527 211.80656,35.012174 C 211.3799,34.798861 211.16657,34.425528 211.16656,33.892174 C 211.16657,33.332195 211.35323,32.878863 211.72656,32.532174 C 211.83323,32.452196 212.20657,32.34553 212.84656,32.212174 L 214.76656,32.092174 C 215.35323,32.092197 215.99323,32.10553 216.68656,32.132174 C 217.37989,32.158863 218.12656,32.212197 218.92656,32.292174 C 219.40656,32.292196 220.11322,32.372196 221.04656,32.532174 C 223.65989,32.532196 226.08655,32.732196 228.32656,33.132174 C 231.28655,33.665528 233.61988,34.532194 235.32656,35.732174 C 237.43321,37.198858 238.48654,39.09219 238.48656,41.412174 C 238.48654,42.078853 238.08654,42.825519 237.28656,43.652174 C 236.48654,44.478851 236.08654,45.35885 236.08656,46.292174 C 236.08654,47.918847 237.12654,49.412179 239.20656,50.772174 C 241.28654,52.132177 243.61987,52.812176 246.20656,52.812174 C 246.73986,52.812176 247.52653,52.718843 248.56656,52.532174 C 249.71319,52.372176 250.53986,52.18551 251.04656,51.972174 L 251.88656,51.972174 M 232.40656,46.692174 L 232.04656,45.092174 C 231.88655,44.532184 231.19321,44.252184 229.96656,44.252174 C 226.65988,44.252184 223.53989,45.27885 220.60656,47.332174 C 218.20656,49.01218 217.00656,50.278845 217.00656,51.132174 C 217.00656,51.58551 217.16656,51.998843 217.48656,52.372174 C 217.64656,52.50551 217.84656,52.612176 218.08656,52.692174 C 218.32656,52.772176 218.63323,52.812176 219.00656,52.812174 C 221.13989,52.812176 223.76655,51.932177 226.88656,50.172174 L 232.40656,46.692174 M 251.33781,53.892174 L 251.05781,54.532174 C 250.84447,54.932174 250.60447,55.15884 250.33781,55.212174 C 249.91114,55.212174 249.49781,54.718841 249.09781,53.732174 C 248.75114,52.718843 248.31114,50.998844 247.77781,48.572174 L 246.05781,40.132174 L 244.81781,33.892174 C 244.33781,31.172198 244.09781,27.998867 244.09781,24.372174 L 244.05781,23.452174 C 244.05781,22.785539 244.13781,22.238873 244.29781,21.812174 C 244.45781,21.358874 244.83115,21.132208 245.41781,21.132174 C 245.84448,21.132208 246.11114,21.292207 246.21781,21.612174 C 246.32448,21.90554 246.39114,22.198873 246.41781,22.492174 C 246.44448,22.758873 246.45781,23.225539 246.45781,23.892174 L 246.45781,26.092174 C 246.45781,27.212202 246.47114,28.265534 246.49781,29.252174 C 246.52448,30.238865 246.59114,31.358864 246.69781,32.612174 C 246.83114,33.838862 247.05781,35.465527 247.37781,37.492174 L 248.37781,41.572174 L 250.29781,49.332174 L 251.33781,53.892174 M 269.99594,40.132174 C 270.07592,40.692188 269.34259,41.105521 267.79594,41.372174 L 265.83594,41.652174 L 258.47594,42.972174 L 254.35594,43.812174 L 252.47594,44.412174 L 251.83594,44.132174 L 251.63594,42.972174 L 253.67594,42.172174 L 254.55594,42.452174 L 261.63594,41.252174 L 266.79594,40.292174 L 266.83594,40.172174 C 266.96926,39.958855 267.51592,39.758856 268.47594,39.572174 L 268.71594,39.412174 L 269.23594,39.252174 C 269.42259,39.252189 269.56925,39.305523 269.67594,39.412174 C 269.80925,39.518856 269.91592,39.758856 269.99594,40.132174 M 91.087187,74.772174 L 90.007188,76.172174 C 89.607154,76.652202 89.260488,76.892202 88.967187,76.892174 L 84.767188,76.892174 C 80.100497,76.892202 75.580502,78.012201 71.207188,80.252174 C 67.287177,82.278863 64.073846,84.852194 61.567188,87.972174 C 59.060518,91.065521 57.807186,93.972185 57.807187,96.692174 C 57.807186,99.17218 58.847185,101.05218 60.927188,102.33217 C 62.633848,103.34551 64.687179,103.85217 67.087187,103.85217 C 68.740508,103.85217 71.113839,103.49218 74.207188,102.77217 C 78.153832,101.83884 80.127164,100.79884 80.127187,99.652174 C 80.127164,98.105514 79.233831,96.812182 77.447187,95.772174 C 75.687168,94.705517 73.48717,94.172185 70.847188,94.172174 L 69.967187,94.012174 C 68.607175,93.638852 67.927176,93.132186 67.927188,92.492174 C 67.927176,91.505521 68.673842,90.838855 70.167187,90.492174 C 71.687172,90.145522 75.287169,89.972189 80.967187,89.972174 L 88.567188,89.972174 L 88.567188,91.652174 L 85.607187,99.212174 C 85.607158,99.825512 85.887158,100.67884 86.447187,101.77217 L 87.287188,103.45217 C 87.287157,104.06551 86.927157,104.61217 86.207188,105.09217 L 83.927188,106.37217 L 82.647188,106.37217 L 81.927188,104.17217 L 81.727187,102.89217 C 81.727162,102.38551 81.820495,101.86551 82.007188,101.33217 L 81.407187,101.33217 L 80.327188,102.41217 C 79.820497,102.81218 79.220498,103.17218 78.527187,103.49217 C 77.860499,103.81217 76.967167,104.14551 75.847188,104.49217 C 74.727169,104.81217 73.473837,105.06551 72.087187,105.25217 C 70.727173,105.43884 69.193841,105.53217 67.487188,105.53217 C 63.087181,105.53217 59.740517,104.62551 57.447187,102.81217 C 55.447188,101.21218 54.447189,99.038846 54.447187,96.292174 C 54.447189,94.292184 55.887188,91.465521 58.767187,87.812174 C 61.913849,83.865528 65.700512,80.558865 70.127188,77.892174 C 75.407168,74.692204 80.71383,73.092206 86.047188,73.092174 C 87.167157,73.092206 88.073822,73.225539 88.767188,73.492174 C 89.033822,73.598872 89.327155,73.745538 89.647188,73.932174 C 89.967154,74.092205 90.447153,74.372204 91.087187,74.772174 M 83.927188,93.932174 L 82.967187,93.652174 L 81.887187,93.732174 L 80.567188,93.732174 L 80.567188,94.612174 L 81.487188,95.732174 L 82.447187,97.132174 L 83.207188,95.372174 L 83.927188,93.932174 M 108.86344,84.292174 C 107.82342,84.505528 106.95675,84.812194 106.26344,85.212174 C 105.70342,85.532193 105.21009,85.692193 104.78344,85.692174 C 104.27676,85.692193 103.82342,85.31886 103.42344,84.572174 C 103.05009,83.798862 102.61009,83.412195 102.10344,83.412174 C 100.85009,83.412195 99.43676,84.558861 97.863438,86.852174 C 96.18343,89.332189 95.343431,91.86552 95.343437,94.452174 C 95.343431,95.412183 95.503431,96.398849 95.823437,97.412174 L 95.823437,105.49217 L 93.543437,105.49217 C 92.983434,105.49217 92.223434,104.21217 91.263437,101.65217 C 90.090103,98.425514 89.503437,94.905517 89.503438,91.092174 L 89.463437,89.612174 L 89.423438,88.372174 C 89.423437,87.518858 89.530104,86.865525 89.743437,86.412174 C 89.983437,85.958859 90.503436,85.412193 91.303438,84.772174 L 92.623437,84.772174 L 92.863438,85.812174 L 92.903437,86.772174 C 92.903434,86.985525 92.903434,87.185525 92.903437,87.372174 C 92.823434,87.692191 92.7701,87.932191 92.743437,88.092174 L 92.583438,89.132174 C 92.583434,89.532189 92.756767,90.025522 93.103437,90.612174 C 94.543432,86.985525 96.250097,84.278861 98.223438,82.492174 C 99.850093,81.025531 101.59676,80.292198 103.46344,80.292174 L 105.42344,81.052174 C 106.62342,81.505531 107.77009,81.838864 108.86344,82.052174 L 108.86344,84.292174 M 145.01156,101.97217 L 144.61156,102.41217 C 143.86486,102.99884 142.51819,103.57218 140.57156,104.13217 C 138.9182,104.58551 137.82487,104.81217 137.29156,104.81217 C 134.81154,104.81217 132.61154,104.21217 130.69156,103.01217 L 125.93156,99.132174 C 124.03821,100.65218 121.71822,102.05218 118.97156,103.33217 C 116.22489,104.58551 113.54489,105.21217 110.93156,105.21217 C 110.37156,105.21217 109.69156,104.94551 108.89156,104.41217 C 108.09156,103.87884 107.69156,103.21218 107.69156,102.41217 C 107.69156,100.03885 109.10489,97.732181 111.93156,95.492174 C 115.07822,93.038852 118.79822,91.812187 123.09156,91.812174 C 124.13155,91.812187 124.81155,91.385521 125.13156,90.532174 C 125.26488,89.865522 125.38488,89.292189 125.49156,88.812174 C 125.62488,88.305524 125.77154,87.825524 125.93156,87.372174 C 124.83821,86.705525 123.39821,86.132193 121.61156,85.652174 C 119.82488,85.172194 118.29155,84.932194 117.01156,84.932174 C 116.07822,84.932194 115.38489,84.95886 114.93156,85.012174 C 114.47822,85.03886 113.70489,85.11886 112.61156,85.252174 C 111.54489,85.35886 110.70489,85.43886 110.09156,85.492174 C 109.50489,85.545527 108.97156,85.572193 108.49156,85.572174 L 106.53156,85.452174 C 105.89156,85.372193 105.35823,85.225527 104.93156,85.012174 C 104.5049,84.798861 104.29157,84.425528 104.29156,83.892174 C 104.29157,83.332195 104.47823,82.878863 104.85156,82.532174 C 104.95823,82.452196 105.33157,82.34553 105.97156,82.212174 L 107.89156,82.092174 C 108.47823,82.092197 109.11823,82.10553 109.81156,82.132174 C 110.50489,82.158863 111.25156,82.212197 112.05156,82.292174 C 112.53156,82.292196 113.23822,82.372196 114.17156,82.532174 C 116.78489,82.532196 119.21155,82.732196 121.45156,83.132174 C 124.41155,83.665528 126.74488,84.532194 128.45156,85.732174 C 130.55821,87.198858 131.61154,89.09219 131.61156,91.412174 C 131.61154,92.078853 131.21154,92.825519 130.41156,93.652174 C 129.61154,94.478851 129.21154,95.35885 129.21156,96.292174 C 129.21154,97.918847 130.25154,99.412179 132.33156,100.77217 C 134.41154,102.13218 136.74487,102.81218 139.33156,102.81217 C 139.86486,102.81218 140.65153,102.71884 141.69156,102.53217 C 142.83819,102.37218 143.66486,102.18551 144.17156,101.97217 L 145.01156,101.97217 M 125.53156,96.692174 L 125.17156,95.092174 C 125.01155,94.532184 124.31821,94.252184 123.09156,94.252174 C 119.78488,94.252184 116.66489,95.27885 113.73156,97.332174 C 111.33156,99.01218 110.13156,100.27885 110.13156,101.13217 C 110.13156,101.58551 110.29156,101.99884 110.61156,102.37217 C 110.77156,102.50551 110.97156,102.61218 111.21156,102.69217 C 111.45156,102.77218 111.75823,102.81218 112.13156,102.81217 C 114.26489,102.81218 116.89155,101.93218 120.01156,100.17217 L 125.53156,96.692174 M 155.86281,92.652174 C 155.86279,94.332184 155.15613,95.71885 153.74281,96.812174 C 152.2228,98.012181 150.1428,98.61218 147.50281,98.612174 C 146.88947,98.61218 146.16947,98.53218 145.34281,98.372174 C 144.51614,98.212181 143.92947,98.132181 143.58281,98.132174 L 142.62281,98.252174 L 141.54281,98.612174 L 141.54281,100.21217 L 142.50281,105.29217 L 143.50281,110.93217 L 144.38281,114.33217 C 144.38281,114.67883 144.35614,114.95883 144.30281,115.17217 L 144.46281,115.33217 L 144.66281,115.73217 C 144.66281,115.91883 144.46281,116.09216 144.06281,116.25217 C 143.68947,116.41216 142.98281,116.49216 141.94281,116.49217 C 141.75614,116.3055 141.59614,116.13216 141.46281,115.97217 C 141.32948,115.83883 141.11614,115.55883 140.82281,115.13217 C 139.99614,113.95883 139.28948,112.5455 138.70281,110.89217 C 137.92948,108.6255 137.54281,106.25217 137.54281,103.77217 L 137.54281,100.21217 C 137.54281,94.745517 137.75615,90.998854 138.18281,88.972174 C 139.11614,84.518861 141.15614,82.292196 144.30281,82.292174 C 146.72947,82.292196 149.2228,83.398862 151.78281,85.612174 C 154.5028,87.932191 155.86279,90.278855 155.86281,92.652174 M 153.06281,93.052174 C 153.0628,91.212188 152.00946,89.478856 149.90281,87.852174 C 148.11614,86.518859 146.3828,85.732193 144.70281,85.492174 L 141.94281,86.452174 C 141.72947,87.305525 141.62281,87.998857 141.62281,88.532174 L 141.82281,91.572174 L 141.94281,94.652174 L 145.10281,95.372174 C 146.27614,95.665516 147.47614,95.812183 148.70281,95.812174 C 150.43613,95.812183 151.59613,95.652183 152.18281,95.332174 C 152.76946,95.012184 153.0628,94.252184 153.06281,93.052174 M 173.56156,106.65217 C 172.70821,107.05217 172.00155,107.4255 171.44156,107.77217 L 170.36156,108.41217 C 168.92155,108.41217 167.86822,107.35884 167.20156,105.25217 C 166.98822,104.55884 166.70822,103.17218 166.36156,101.09217 C 165.77489,97.518848 165.34822,95.59885 165.08156,95.332174 C 164.60155,95.67885 163.88156,96.558849 162.92156,97.972174 C 162.20156,99.918845 161.54822,101.54551 160.96156,102.85217 C 160.37489,104.15884 159.82823,104.94551 159.32156,105.21217 C 159.08156,104.59884 158.88156,103.86551 158.72156,103.01217 C 158.61489,102.18551 158.54823,101.62551 158.52156,101.33217 C 158.52156,101.03884 158.52156,100.79884 158.52156,100.61217 C 158.52156,99.652179 158.44156,98.65218 158.28156,97.612174 C 158.33489,97.292181 158.36156,97.052182 158.36156,96.892174 C 158.36156,96.785515 158.33489,96.612182 158.28156,96.372174 C 158.22823,96.132183 158.10823,95.772183 157.92156,95.292174 L 157.12156,90.652174 L 155.56156,81.572174 L 154.72156,76.492174 L 154.48156,75.332174 L 154.20156,74.052174 C 154.20156,73.705538 154.26823,73.358872 154.40156,73.012174 C 154.48156,72.692206 154.70823,72.30554 155.08156,71.852174 C 156.12156,72.092207 156.84156,73.025539 157.24156,74.652174 C 157.45489,76.438869 157.61489,77.772201 157.72156,78.652174 C 157.93489,80.305532 158.24156,82.532196 158.64156,85.332174 C 158.77489,85.998859 158.93489,86.918858 159.12156,88.092174 C 159.33489,89.265523 159.52156,90.438855 159.68156,91.612174 C 160.05489,94.358851 160.24156,96.558849 160.24156,98.212174 C 160.24156,99.385513 160.17489,100.18551 160.04156,100.61217 L 161.36156,96.052174 C 161.78822,95.19885 162.17489,94.558851 162.52156,94.132174 C 163.24156,93.305519 163.61489,92.865519 163.64156,92.812174 C 163.90822,92.412186 164.18822,92.012187 164.48156,91.612174 C 164.93489,91.025521 165.42822,90.732188 165.96156,90.732174 C 166.84155,90.732188 167.46822,91.612187 167.84156,93.372174 C 168.32155,96.145516 168.70822,97.798848 169.00156,98.332174 C 169.66822,100.14551 170.24155,101.57218 170.72156,102.61217 C 171.65488,104.58551 172.60155,105.57217 173.56156,105.57217 L 173.56156,106.65217 M 192.14469,84.292174 C 191.10467,84.505528 190.238,84.812194 189.54469,85.212174 C 188.98467,85.532193 188.49134,85.692193 188.06469,85.692174 C 187.55801,85.692193 187.10467,85.31886 186.70469,84.572174 C 186.33134,83.798862 185.89134,83.412195 185.38469,83.412174 C 184.13134,83.412195 182.71801,84.558861 181.14469,86.852174 C 179.46468,89.332189 178.62468,91.86552 178.62469,94.452174 C 178.62468,95.412183 178.78468,96.398849 179.10469,97.412174 L 179.10469,105.49217 L 176.82469,105.49217 C 176.26468,105.49217 175.50468,104.21217 174.54469,101.65217 C 173.37135,98.425514 172.78469,94.905517 172.78469,91.092174 L 172.74469,89.612174 L 172.70469,88.372174 C 172.70469,87.518858 172.81135,86.865525 173.02469,86.412174 C 173.26469,85.958859 173.78469,85.412193 174.58469,84.772174 L 175.90469,84.772174 L 176.14469,85.812174 L 176.18469,86.772174 C 176.18468,86.985525 176.18468,87.185525 176.18469,87.372174 C 176.10468,87.692191 176.05135,87.932191 176.02469,88.092174 L 175.86469,89.132174 C 175.86468,89.532189 176.03802,90.025522 176.38469,90.612174 C 177.82468,86.985525 179.53135,84.278861 181.50469,82.492174 C 183.13134,81.025531 184.87801,80.292198 186.74469,80.292174 L 188.70469,81.052174 C 189.90467,81.505531 191.05134,81.838864 192.14469,82.052174 L 192.14469,84.292174 M 220.33281,103.85217 C 220.33278,104.30551 220.09278,104.81217 219.61281,105.37217 C 218.97278,106.09217 218.17279,106.45217 217.21281,106.45217 C 216.54612,106.45217 215.45279,106.33217 213.93281,106.09217 C 212.43946,105.85217 210.43946,105.47884 207.93281,104.97217 C 203.18613,103.98551 200.3728,103.26551 199.49281,102.81217 C 196.55947,101.42551 194.54614,100.27885 193.45281,99.372174 C 193.29281,99.21218 192.99948,98.905513 192.57281,98.452174 C 192.14614,97.998847 191.63948,97.398848 191.05281,96.652174 L 189.37281,96.772174 C 187.82615,96.772182 186.55948,96.398849 185.57281,95.652174 C 184.45282,94.772184 183.89282,93.865518 183.89281,92.932174 C 183.89282,92.398853 184.13282,91.94552 184.61281,91.572174 C 185.06615,91.198854 185.69282,90.958854 186.49281,90.852174 L 187.73281,92.052174 L 188.57281,92.812174 L 191.69281,92.932174 C 191.69281,90.265522 192.94614,87.972191 195.45281,86.052174 C 197.29281,84.692194 199.90614,83.492195 203.29281,82.452174 C 204.22613,82.18553 205.1328,82.012197 206.01281,81.932174 L 208.25281,81.772174 C 210.75946,81.772197 212.95946,82.34553 214.85281,83.492174 C 216.77279,84.612194 217.73279,86.025526 217.73281,87.732174 C 217.73279,88.61219 217.06612,89.638856 215.73281,90.812174 C 214.18612,92.172187 212.02612,93.318852 209.25281,94.252174 C 205.83946,95.345517 201.91947,95.892183 197.49281,95.892174 L 196.73281,95.812174 C 196.38614,95.812183 196.19947,95.905516 196.17281,96.092174 C 196.17281,96.225516 196.45281,96.572182 197.01281,97.132174 L 198.17281,98.132174 L 203.13281,101.13217 C 205.4528,101.93218 208.39946,102.33218 211.97281,102.33217 C 213.22612,102.33218 214.01279,102.09218 214.33281,101.61217 C 214.67946,100.99884 215.46612,100.53218 216.69281,100.21217 L 218.25281,100.21217 L 220.33281,103.85217 M 214.09281,88.492174 C 213.61279,87.158858 212.73279,86.225526 211.45281,85.692174 C 210.41279,85.31886 208.69279,85.132194 206.29281,85.132174 C 203.46613,85.132194 201.03947,85.865526 199.01281,87.332174 C 197.14614,88.665523 195.57281,90.705521 194.29281,93.452174 C 194.69281,93.292185 194.99948,93.212186 195.21281,93.212174 L 195.81281,93.332174 L 196.37281,93.452174 C 199.67947,93.452185 203.3728,92.918852 207.45281,91.852174 C 211.53279,90.758855 213.74612,89.638856 214.09281,88.492174 M 253.83219,79.172174 L 252.11219,85.172174 L 250.43219,90.612174 C 248.99216,94.745517 247.47216,98.118847 245.87219,100.73217 C 243.63216,104.38551 241.41883,106.21217 239.23219,106.21217 C 238.59217,106.21217 237.99217,105.79884 237.43219,104.97217 C 235.83217,101.71884 234.2855,98.69218 232.79219,95.892174 L 232.19219,96.572174 L 231.99219,96.732174 L 232.23219,96.612174 C 232.31217,96.852182 232.35217,97.052182 232.35219,97.212174 C 232.35217,97.638848 231.51217,98.89218 229.83219,100.97217 C 227.88551,103.31884 226.29884,104.49217 225.07219,104.49217 C 223.79218,104.49217 222.45885,103.22551 221.07219,100.69217 C 220.08552,98.878847 219.09885,96.492182 218.11219,93.532174 L 216.91219,89.452174 C 216.67219,88.998856 216.25885,88.57219 215.67219,88.172174 C 215.11219,87.878858 214.80552,87.598858 214.75219,87.332174 C 214.75219,86.238859 214.91219,85.305527 215.23219,84.532174 C 215.68552,83.545529 216.39219,83.052196 217.35219,83.052174 C 218.01885,83.052196 218.81885,84.518861 219.75219,87.452174 C 220.71218,90.358855 221.19218,92.318853 221.19219,93.332174 C 221.19218,93.892185 221.61885,95.065517 222.47219,96.852174 C 223.43218,98.905513 224.44551,100.45218 225.51219,101.49217 C 227.85884,99.545513 229.35218,97.038848 229.99219,93.972174 L 230.43219,87.252174 C 230.43217,85.305527 231.07217,84.332194 232.35219,84.332174 L 232.59219,84.452174 L 233.19219,84.492174 C 233.37884,84.492194 233.57884,84.492194 233.79219,84.492174 C 234.11217,84.412194 234.35217,84.358861 234.51219,84.332174 C 234.51217,84.678861 234.5655,85.27886 234.67219,86.132174 C 234.77884,86.985525 234.95217,88.105524 235.19219,89.492174 C 235.75217,92.852186 236.39217,95.665516 237.11219,97.932174 C 238.07217,100.89218 239.07217,102.37218 240.11219,102.37217 C 241.87216,102.37218 243.47216,100.26551 244.91219,96.052174 C 245.15216,95.35885 245.52549,93.998851 246.03219,91.972174 C 246.53882,89.918855 247.15216,87.345525 247.87219,84.252174 C 248.83216,80.012199 249.67215,77.892201 250.39219,77.892174 C 250.68549,77.892201 250.96549,78.025534 251.23219,78.292174 C 251.87215,78.878867 252.73882,79.1722 253.83219,79.172174 M 271.44156,84.292174 C 270.40154,84.505528 269.53488,84.812194 268.84156,85.212174 C 268.28155,85.532193 267.78821,85.692193 267.36156,85.692174 C 266.85488,85.692193 266.40155,85.31886 266.00156,84.572174 C 265.62822,83.798862 265.18822,83.412195 264.68156,83.412174 C 263.42822,83.412195 262.01489,84.558861 260.44156,86.852174 C 258.76156,89.332189 257.92156,91.86552 257.92156,94.452174 C 257.92156,95.412183 258.08156,96.398849 258.40156,97.412174 L 258.40156,105.49217 L 256.12156,105.49217 C 255.56156,105.49217 254.80156,104.21217 253.84156,101.65217 C 252.66823,98.425514 252.08156,94.905517 252.08156,91.092174 L 252.04156,89.612174 L 252.00156,88.372174 C 252.00156,87.518858 252.10823,86.865525 252.32156,86.412174 C 252.56156,85.958859 253.08156,85.412193 253.88156,84.772174 L 255.20156,84.772174 L 255.44156,85.812174 L 255.48156,86.772174 C 255.48156,86.985525 255.48156,87.185525 255.48156,87.372174 C 255.40156,87.692191 255.34823,87.932191 255.32156,88.092174 L 255.16156,89.132174 C 255.16156,89.532189 255.33489,90.025522 255.68156,90.612174 C 257.12156,86.985525 258.82822,84.278861 260.80156,82.492174 C 262.42822,81.025531 264.17488,80.292198 266.04156,80.292174 L 268.00156,81.052174 C 269.20154,81.505531 270.34821,81.838864 271.44156,82.052174 L 271.44156,84.292174 M 279.06969,70.652174 C 279.06968,71.692207 278.90968,72.38554 278.58969,72.732174 C 278.26968,73.052206 277.58968,73.372205 276.54969,73.692174 L 276.06969,72.132174 C 275.90968,71.332207 275.82968,70.638875 275.82969,70.052174 C 275.82968,69.545543 275.86968,69.185543 275.94969,68.972174 C 276.05635,68.73221 276.25635,68.61221 276.54969,68.612174 C 277.48301,68.61221 278.13635,68.73221 278.50969,68.972174 C 278.88301,69.185543 279.06968,69.745542 279.06969,70.652174 M 294.86969,94.332174 L 294.82969,94.732174 C 294.803,94.865517 294.77633,94.945517 294.74969,94.972174 C 294.74966,97.318848 293.17633,99.332179 290.02969,101.01217 C 286.13634,103.03884 282.64301,104.05217 279.54969,104.05217 C 277.41635,104.05217 275.97635,103.51884 275.22969,102.45217 C 275.04302,102.15884 274.53635,100.66551 273.70969,97.972174 C 273.38968,98.052181 272.98968,98.25218 272.50969,98.572174 L 271.94969,99.012174 L 267.38969,99.012174 L 267.38969,96.492174 C 270.42969,95.692183 272.56302,94.545518 273.78969,93.052174 C 274.53635,92.092187 275.13635,90.505522 275.58969,88.292174 C 276.06968,86.078859 276.64301,84.398861 277.30969,83.252174 L 279.86969,84.252174 C 280.40301,84.492194 281.06968,84.99886 281.86969,85.772174 C 280.56301,87.398858 279.50968,89.278856 278.70969,91.412174 C 277.90968,93.518852 277.50968,95.545517 277.50969,97.492174 C 277.50968,98.69218 277.78968,99.665512 278.34969,100.41217 C 278.90968,101.15884 279.64301,101.53218 280.54969,101.53217 C 281.08301,101.53218 282.21634,101.33218 283.94969,100.93217 C 286.61634,100.31885 288.73634,99.545513 290.30969,98.612174 C 292.57633,97.305515 293.70966,95.745516 293.70969,93.932174 L 294.34969,93.812174 L 294.74969,93.932174 C 294.82966,94.012185 294.86966,94.145518 294.86969,94.332174 M 309.43594,90.852174 L 309.43594,91.292174 C 309.43592,91.558854 309.32925,91.798854 309.11594,92.012174 C 308.92925,92.30552 308.79592,92.518853 308.71594,92.652174 C 308.55592,92.892186 308.27592,93.012186 307.87594,93.012174 C 307.79592,93.012186 307.59592,92.985519 307.27594,92.932174 C 306.58259,92.665519 306.03592,92.478853 305.63594,92.372174 C 304.30259,91.972187 303.24926,91.772187 302.47594,91.772174 C 301.80926,91.772187 301.32926,91.918853 301.03594,92.212174 C 300.92926,92.318853 300.84926,92.678853 300.79594,93.292174 C 300.7426,93.905518 300.71593,94.678851 300.71594,95.612174 C 300.71593,97.398848 300.7826,99.532179 300.91594,102.01217 C 300.9426,102.89218 301.02259,104.06551 301.15594,105.53217 L 299.23594,105.53217 C 298.51593,105.37217 296.99593,104.17217 294.67594,101.93217 C 293.87594,101.15884 293.12927,99.798846 292.43594,97.852174 C 291.39594,94.945517 290.87594,92.812186 290.87594,91.452174 C 290.87594,90.412188 291.99594,89.892189 294.23594,89.892174 C 296.5026,89.892189 297.63593,89.425523 297.63594,88.492174 C 297.63593,88.092191 297.51593,87.265525 297.27594,86.012174 C 297.03593,84.732194 296.80927,83.665528 296.59594,82.812174 C 295.87593,79.878866 295.51593,78.212201 295.51594,77.812174 L 290.51594,63.972174 L 291.39594,62.692174 C 291.63594,62.42555 291.9826,62.278883 292.43594,62.252174 C 292.8626,62.252216 293.87594,64.398881 295.47594,68.692174 C 297.1026,72.985539 298.1426,76.252202 298.59594,78.492174 L 300.39594,89.172174 C 300.5826,89.332189 301.16926,89.518856 302.15594,89.732174 C 303.16926,89.918855 304.03593,90.012189 304.75594,90.012174 C 306.91592,90.012189 308.23592,90.052189 308.71594,90.132174 C 309.19592,90.212189 309.43592,90.452188 309.43594,90.852174 M 298.55594,102.53217 C 298.6626,101.70551 298.72926,101.02551 298.75594,100.49217 C 298.88926,98.89218 298.95593,97.478848 298.95594,96.252174 C 298.95593,95.052184 298.88926,94.092185 298.75594,93.372174 C 298.64926,92.625519 298.43593,92.18552 298.11594,92.052174 C 297.8226,91.918853 297.47593,91.82552 297.07594,91.772174 C 296.7026,91.718854 296.32927,91.692187 295.95594,91.692174 C 295.2626,91.692187 294.59593,91.772187 293.95594,91.932174 C 293.31594,92.092187 292.99594,92.22552 292.99594,92.332174 C 292.99594,92.492186 293.08927,92.945519 293.27594,93.692174 C 293.3826,94.172185 293.5026,94.652184 293.63594,95.132174 C 293.87594,96.278849 294.64927,97.758848 295.95594,99.572174 C 297.12927,101.19884 297.99593,102.18551 298.55594,102.53217 M 334.62969,103.85217 C 334.62966,104.30551 334.38966,104.81217 333.90969,105.37217 C 333.26966,106.09217 332.46966,106.45217 331.50969,106.45217 C 330.843,106.45217 329.74966,106.33217 328.22969,106.09217 C 326.73633,105.85217 324.73633,105.47884 322.22969,104.97217 C 317.48301,103.98551 314.66968,103.26551 313.78969,102.81217 C 310.85635,101.42551 308.84302,100.27885 307.74969,99.372174 C 307.58969,99.21218 307.29635,98.905513 306.86969,98.452174 C 306.44302,97.998847 305.93635,97.398848 305.34969,96.652174 L 303.66969,96.772174 C 302.12302,96.772182 300.85636,96.398849 299.86969,95.652174 C 298.74969,94.772184 298.18969,93.865518 298.18969,92.932174 C 298.18969,92.398853 298.42969,91.94552 298.90969,91.572174 C 299.36303,91.198854 299.98969,90.958854 300.78969,90.852174 L 302.02969,92.052174 L 302.86969,92.812174 L 305.98969,92.932174 C 305.98969,90.265522 307.24302,87.972191 309.74969,86.052174 C 311.58968,84.692194 314.20301,83.492195 317.58969,82.452174 C 318.52301,82.18553 319.42967,82.012197 320.30969,81.932174 L 322.54969,81.772174 C 325.05633,81.772197 327.25633,82.34553 329.14969,83.492174 C 331.06966,84.612194 332.02966,86.025526 332.02969,87.732174 C 332.02966,88.61219 331.36299,89.638856 330.02969,90.812174 C 328.483,92.172187 326.323,93.318852 323.54969,94.252174 C 320.13634,95.345517 316.21634,95.892183 311.78969,95.892174 L 311.02969,95.812174 C 310.68302,95.812183 310.49635,95.905516 310.46969,96.092174 C 310.46968,96.225516 310.74968,96.572182 311.30969,97.132174 L 312.46969,98.132174 L 317.42969,101.13217 C 319.74967,101.93218 322.69634,102.33218 326.26969,102.33217 C 327.523,102.33218 328.30966,102.09218 328.62969,101.61217 C 328.97633,100.99884 329.763,100.53218 330.98969,100.21217 L 332.54969,100.21217 L 334.62969,103.85217 M 328.38969,88.492174 C 327.90967,87.158858 327.02967,86.225526 325.74969,85.692174 C 324.70967,85.31886 322.98967,85.132194 320.58969,85.132174 C 317.76301,85.132194 315.33634,85.865526 313.30969,87.332174 C 311.44301,88.665523 309.86968,90.705521 308.58969,93.452174 C 308.98968,93.292185 309.29635,93.212186 309.50969,93.212174 L 310.10969,93.332174 L 310.66969,93.452174 C 313.97635,93.452185 317.66968,92.918852 321.74969,91.852174 C 325.82967,90.758855 328.043,89.638856 328.38969,88.492174"
       id="flowRoot2393" />
  </g>
</svg>
