<?xml version="1.0" encoding="UTF-8" standalone="no"?>
<!-- Created with Inkscape (http://www.inkscape.org/) -->

<svg
   xmlns:dc="http://purl.org/dc/elements/1.1/"
   xmlns:cc="http://creativecommons.org/ns#"
   xmlns:rdf="http://www.w3.org/1999/02/22-rdf-syntax-ns#"
   xmlns:svg="http://www.w3.org/2000/svg"
   xmlns="http://www.w3.org/2000/svg"
   xmlns:sodipodi="http://sodipodi.sourceforge.net/DTD/sodipodi-0.dtd"
   xmlns:inkscape="http://www.inkscape.org/namespaces/inkscape"
   width="281.1825"
   height="170.5809"
   id="svg2"
   sodipodi:version="0.32"
   inkscape:version="0.47pre1 r21720"
   version="1.0"
   sodipodi:docname="splash.svg"
   inkscape:output_extension="org.inkscape.output.svg.inkscape">
  <defs
     id="defs4">
    <inkscape:perspective
       sodipodi:type="inkscape:persp3d"
       inkscape:vp_x="0 : 526.18109 : 1"
       inkscape:vp_y="0 : 1000 : 0"
       inkscape:vp_z="744.09448 : 526.18109 : 1"
       inkscape:persp3d-origin="372.04724 : 350.78739 : 1"
       id="perspective10" />
    <inkscape:perspective
       id="perspective3999"
       inkscape:persp3d-origin="0.5 : 0.33333333 : 1"
       inkscape:vp_z="1 : 0.5 : 1"
       inkscape:vp_y="0 : 1000 : 0"
       inkscape:vp_x="0 : 0.5 : 1"
       sodipodi:type="inkscape:persp3d" />
    <filter
       inkscape:collect="always"
       id="filter4201"
       color-interpolation-filters="sRGB">
      <feGaussianBlur
         inkscape:collect="always"
         stdDeviation="2.5543347"
         id="feGaussianBlur4203" />
    </filter>
  </defs>
  <sodipodi:namedview
     id="base"
     pagecolor="#ffffff"
     bordercolor="#666666"
     borderopacity="1.0"
     gridtolerance="10000"
     guidetolerance="10"
     objecttolerance="10"
     inkscape:pageopacity="0.0"
     inkscape:pageshadow="2"
     inkscape:zoom="1.7"
     inkscape:cx="69.733871"
     inkscape:cy="52.2863"
     inkscape:document-units="px"
     inkscape:current-layer="layer1"
     showgrid="false"
     inkscape:window-width="1680"
     inkscape:window-height="992"
     inkscape:window-x="-4"
     inkscape:window-y="-3"
     inkscape:window-maximized="1" />
  <metadata
     id="metadata7">
    <rdf:RDF>
      <cc:Work
         rdf:about="">
        <dc:format>image/svg+xml</dc:format>
        <dc:type
           rdf:resource="http://purl.org/dc/dcmitype/StillImage" />
      </cc:Work>
    </rdf:RDF>
  </metadata>
  <g
     inkscape:label="Layer 1"
     inkscape:groupmode="layer"
     id="layer1"
     transform="translate(-61.00601,-81.705402)">
    <path
       style="font-size:40px;font-style:italic;font-variant:normal;font-weight:bold;font-stretch:normal;text-align:center;writing-mode:lr-tb;text-anchor:middle;fill:#000000;fill-opacity:1;stroke:#000000;stroke-width:1px;stroke-linecap:butt;stroke-linejoin:miter;stroke-opacity:1;font-family:Steve;-inkscape-font-specification:Steve Bold Italic"
       d="m 150.02226,161.9063 -0.28,-0.76 0.04,0.56 0.04,0.72 0,0.48 c -3e-5,0.16002 -0.0267,0.34669 -0.08,0.56 -3e-5,0.18669 -0.0934,0.36002 -0.28,0.52 l -0.4,-1.4 c -0.0534,-0.23998 -0.0934,-0.46664 -0.12,-0.68 -0.0267,-0.21331 -0.0934,-0.46664 -0.2,-0.76 -0.29336,0.34669 -0.64003,1.20002 -1.04,2.56 l -1.44,4.8 -1.6,4.16 -3.04,8.08 c -1.09335,3.06667 -1.64002,4.85333 -1.64,5.36 l -0.32,0.68 -0.76,1.92 -1.24,1.68 c -0.32002,0.48 -0.97335,0.81333 -1.96,1 -1.12001,-0.8 -2.58668,-3.16 -4.4,-7.08 -1.78668,-3.91999 -3.05334,-7.33332 -3.8,-10.24 l -1.2,-4.36 -0.72,-2.16 -0.24,-1.12 -0.12,-0.56 -0.76,-3.32 c -0.4,-0.45331 -0.72,-1.09331 -0.96,-1.92 -0.26667,-0.85331 -0.4,-1.94664 -0.4,-3.28 0,-0.47997 0.0933,-0.82664 0.28,-1.04 l 0.52,-0.56 1.2,0 c 0.48,0.08 0.82666,0.2667 1.04,0.56 0.37333,0.53336 0.55999,1.28003 0.56,2.24 l 0.44,2.2 c 0.79999,3.92002 1.31999,6.64002 1.56,8.16 l 0.92,3.36 0.4,1.72 3.48,9.28 c -1e-5,0.24 0.19999,0.56 0.6,0.96 0.39999,0.37334 0.59999,0.72 0.6,1.04 -1e-5,0.37333 0.38665,0.76 1.16,1.16 l 1.2,0.4 c 1.27998,-2.66666 2.46665,-5.28 3.56,-7.84 0.98665,-2.29332 1.94665,-4.67999 2.88,-7.16 l 2.72,-7.96 c 0.63997,-1.81331 1.46664,-3.14664 2.48,-4 0.34664,3e-5 0.67997,0.30669 1,0.92 0.15997,0.37336 0.26664,0.74669 0.32,1.12 m 8.60625,-5.96 c -1e-5,1.04003 -0.16001,1.73336 -0.48,2.08 -0.32001,0.32003 -1.00001,0.64003 -2.04,0.96 l -0.48,-1.56 c -0.16001,-0.79997 -0.24001,-1.4933 -0.24,-2.08 -1e-5,-0.50663 0.04,-0.86663 0.12,-1.08 0.10666,-0.23997 0.30666,-0.35997 0.6,-0.36 0.93332,3e-5 1.58666,0.12003 1.96,0.36 0.37332,0.21337 0.55999,0.77336 0.56,1.68 m 15.8,23.68 -0.04,0.4 c -0.0267,0.13334 -0.0534,0.21334 -0.08,0.24 -3e-5,2.34667 -1.57336,4.36 -4.72,6.04 -3.89335,2.02667 -7.38668,3.04 -10.48,3.04 -2.13334,0 -3.57334,-0.53333 -4.32,-1.6 -0.18667,-0.29333 -0.69334,-1.78667 -1.52,-4.48 -0.32001,0.08 -0.72001,0.28 -1.2,0.6 l -0.56,0.44 -4.56,0 0,-2.52 c 3.04,-0.79999 5.17333,-1.94666 6.4,-3.44 0.74666,-0.95999 1.34666,-2.54666 1.8,-4.76 0.47999,-2.21332 1.05332,-3.89332 1.72,-5.04 l 2.56,1 c 0.53332,0.24002 1.19999,0.74668 2,1.52 -1.30668,1.62668 -2.36001,3.50668 -3.16,5.64 -0.80001,2.10667 -1.20001,4.13334 -1.2,6.08 -1e-5,1.2 0.27999,2.17333 0.84,2.92 0.55999,0.74667 1.29332,1.12 2.2,1.12 0.53332,0 1.66665,-0.2 3.4,-0.6 2.66665,-0.61333 4.78665,-1.38666 6.36,-2.32 2.26664,-1.30666 3.39997,-2.86666 3.4,-4.68 l 0.64,-0.12 0.4,0.12 c 0.08,0.08 0.11997,0.21334 0.12,0.4 m 25.32625,6.36 c -3e-5,0.64 -0.61336,1.44 -1.84,2.4 -1.49336,1.17334 -3.18669,1.76 -5.08,1.76 l -10.16,0 c -2.74668,-0.32 -4.82668,-0.6 -6.24,-0.84 -4.16,-0.72 -6.24,-1.50667 -6.24,-2.36 0,-0.69333 0.41333,-1.36 1.24,-2 l 5.24,-2.6 1.88,0 0,1.36 c -1.30668,0.58667 -2.08001,0.97334 -2.32,1.16 l -0.92,0.88 c 0.63999,0.64 2.05332,1.24 4.24,1.8 1.09332,0.24 2.26665,0.42667 3.52,0.56 1.27998,0.13334 2.69332,0.2 4.24,0.2 0.79998,0 1.35998,-0.0133 1.68,-0.04 0.31998,-0.0267 1.02665,-0.13333 2.12,-0.32 2.71998,-0.4 4.53331,-1.05333 5.44,-1.96 -1.22669,-0.93333 -4.18669,-2.09333 -8.88,-3.48 -5.22668,-1.51999 -8.82668,-2.83999 -10.8,-3.96 -3.49334,-1.91999 -5.24,-4.35999 -5.24,-7.32 0,-2.13332 0.58666,-3.49331 1.76,-4.08 0.74666,-0.34665 2.30666,-0.51998 4.68,-0.52 1.73332,2e-5 2.98665,0.0933 3.76,0.28 0.79999,0.16002 1.53332,0.53335 2.2,1.12 l 0,1.4 c -1.36001,0.56002 -2.24001,0.84002 -2.64,0.84 -0.16001,2e-5 -0.28001,-0.13332 -0.36,-0.4 -0.0267,-0.26665 -0.25335,-0.41332 -0.68,-0.44 l -2.76,1 c -1.84001,0.72002 -2.77334,1.29335 -2.8,1.72 -1e-5,2.02668 2.14666,3.97334 6.44,5.84 l 12.04,4.16 c 4.31997,1.44 6.47997,2.72 6.48,3.84 m 20.97437,-9.76 c -2e-5,3.60001 -1.09335,6.78667 -3.28,9.56 -2.40001,3.04 -5.54668,4.56 -9.44,4.56 -2.45334,0 -4.56,-1.37333 -6.32,-4.12 -1.41333,-2.26666 -2.12,-4.50666 -2.12,-6.72 l 0,-4.2 -0.24,-1.2 c -0.08,-0.53332 -0.14666,-1.03999 -0.2,-1.52 -0.0533,-0.47999 -0.08,-0.91999 -0.08,-1.32 0,-1.22665 0.13334,-2.33332 0.4,-3.32 0.29334,-0.98665 0.8,-1.83998 1.52,-2.56 l 0.44,-0.04 0.64,-0.04 0.96,0.12 c 0.26667,0.08 0.49333,0.32002 0.68,0.72 0.18666,0.40002 0.28,0.84002 0.28,1.32 0,0.40002 -0.04,0.84002 -0.12,1.32 -0.08,0.45335 -0.22667,1.00002 -0.44,1.64 -0.08,0.32002 -0.14667,0.54668 -0.2,0.68 -0.0267,0.13335 -0.14667,0.42668 -0.36,0.88 l -0.6,2.44 c -0.24,1.20001 -0.36,1.96001 -0.36,2.28 0,3.30667 0.82667,6.06667 2.48,8.28 1.49333,2 3.49333,3 6,3 1.70666,0 3.30665,-0.86667 4.8,-2.6 1.81332,-2.05333 2.71998,-4.62666 2.72,-7.72 -2e-5,-2.82665 -0.52002,-5.07999 -1.56,-6.76 -0.50668,-0.85332 -0.76001,-1.58665 -0.76,-2.2 -1e-5,-0.55998 0.15999,-0.94665 0.48,-1.16 0.31999,-0.15998 0.78665,-0.23998 1.4,-0.24 1.09332,2e-5 1.95998,1.09335 2.6,3.28 0.45331,1.68001 0.67998,3.56001 0.68,5.64 m 38.21625,11.04 -0.4,0.44 c -0.7467,0.58667 -2.09337,1.16 -4.04,1.72 -1.65336,0.45333 -2.74669,0.68 -3.28,0.68 -2.48002,0 -4.68002,-0.6 -6.6,-1.8 l -4.76,-3.88 c -1.89335,1.52 -4.21334,2.92 -6.96,4.2 -2.74667,1.25333 -5.42667,1.88 -8.04,1.88 -0.56,0 -1.24,-0.26667 -2.04,-0.8 -0.8,-0.53333 -1.2,-1.2 -1.2,-2 0,-2.37333 1.41333,-4.68 4.24,-6.92 3.14666,-2.45333 6.86666,-3.67999 11.16,-3.68 1.03999,1e-5 1.71999,-0.42666 2.04,-1.28 0.13332,-0.66666 0.25332,-1.23999 0.36,-1.72 0.13332,-0.50665 0.27998,-0.98665 0.44,-1.44 -1.09335,-0.66665 -2.53335,-1.23998 -4.32,-1.72 -1.78668,-0.47998 -3.32001,-0.71998 -4.6,-0.72 -0.93334,2e-5 -1.62667,0.0267 -2.08,0.08 -0.45334,0.0267 -1.22667,0.10668 -2.32,0.24 -1.06667,0.10668 -1.90667,0.18668 -2.52,0.24 -0.58667,0.0533 -1.12,0.08 -1.6,0.08 l -1.96,-0.12 c -0.64,-0.08 -1.17333,-0.22665 -1.6,-0.44 -0.42666,-0.21332 -0.63999,-0.58665 -0.64,-1.12 1e-5,-0.55998 0.18667,-1.01331 0.56,-1.36 0.10667,-0.08 0.48001,-0.18665 1.12,-0.32 l 1.92,-0.12 c 0.58667,2e-5 1.22667,0.0134 1.92,0.04 0.69333,0.0267 1.44,0.08 2.24,0.16 0.48,2e-5 1.18666,0.08 2.12,0.24 2.61333,2e-5 5.03999,0.20002 7.28,0.6 2.95999,0.53335 5.29332,1.40002 7,2.6 2.10665,1.46668 3.15998,3.36001 3.16,5.68 -2e-5,0.66668 -0.40002,1.41334 -1.2,2.24 -0.80002,0.82667 -1.20002,1.70667 -1.2,2.64 -2e-5,1.62667 1.03998,3.12 3.12,4.48 2.07998,1.36 4.41331,2.04 7,2.04 0.5333,0 1.31997,-0.0933 2.36,-0.28 1.14663,-0.16 1.9733,-0.34667 2.48,-0.56 l 0.84,0 m -19.48,-5.28 -0.36,-1.6 c -0.16001,-0.55999 -0.85335,-0.83999 -2.08,-0.84 -3.30668,1e-5 -6.42667,1.02667 -9.36,3.08 -2.4,1.68 -3.6,2.94667 -3.6,3.8 0,0.45333 0.16,0.86667 0.48,1.24 0.16,0.13333 0.36,0.24 0.6,0.32 0.24,0.08 0.54667,0.12 0.92,0.12 2.13333,0 4.75999,-0.88 7.88,-2.64 l 5.52,-3.48 m 18.93125,7.2 -0.28,0.64 c -0.21334,0.4 -0.45334,0.62667 -0.72,0.68 -0.42667,0 -0.84,-0.49333 -1.24,-1.48 -0.34667,-1.01333 -0.78667,-2.73333 -1.32,-5.16 l -1.72,-8.44 -1.24,-6.24 c -0.48,-2.71998 -0.72,-5.89331 -0.72,-9.52 l -0.04,-0.92 c 0,-0.66664 0.08,-1.2133 0.24,-1.64 0.16,-0.4533 0.53334,-0.67997 1.12,-0.68 0.42667,3e-5 0.69333,0.16003 0.8,0.48 0.10667,0.29336 0.17333,0.5867 0.2,0.88 0.0267,0.2667 0.04,0.73336 0.04,1.4 l 0,2.2 c 0,1.12002 0.0133,2.17336 0.04,3.16 0.0267,0.98669 0.0933,2.10669 0.2,3.36 0.13333,1.22668 0.36,2.85335 0.68,4.88 l 1,4.08 1.92,7.76 1.04,4.56 m 18.65813,-13.76 c 0.08,0.56001 -0.65335,0.97334 -2.2,1.24 l -1.96,0.28 -7.36,1.32 -4.12,0.84 -1.88,0.6 -0.64,-0.28 -0.2,-1.16 2.04,-0.8 0.88,0.28 7.08,-1.2 5.16,-0.96 0.04,-0.12 c 0.13332,-0.21332 0.67998,-0.41332 1.64,-0.6 l 0.24,-0.16 0.52,-0.16 c 0.18665,1e-5 0.33331,0.0533 0.44,0.16 0.13331,0.10668 0.23998,0.34668 0.32,0.72 m -178.908751,34.64 -1.08,1.4 c -0.40003,0.48003 -0.7467,0.72003 -1.04,0.72 l -4.2,0 c -4.666689,3e-5 -9.186684,1.12003 -13.559998,3.36 -3.920011,2.02669 -7.133342,4.60002 -9.64,7.72 -2.50667,3.09335 -3.760002,6.00001 -3.760001,8.72 -10e-7,2.48001 1.039998,4.36001 3.120001,5.64 1.70666,1.01334 3.759991,1.52 6.159999,1.52 1.653321,0 4.026652,-0.35999 7.120001,-1.08 3.946644,-0.93333 5.919976,-1.97333 5.919999,-3.12 -2.3e-5,-1.54666 -0.893356,-2.83999 -2.68,-3.88 -1.760019,-1.06666 -3.960017,-1.59999 -6.599999,-1.6 l -0.880001,-0.16 c -1.360012,-0.37332 -2.040011,-0.87999 -2.039999,-1.52 -1.2e-5,-0.98665 0.746654,-1.65332 2.239999,-2 1.519985,-0.34665 5.119982,-0.51998 10.8,-0.52 l 7.599999,0 0,1.68 -2.96,7.56 c -3e-5,0.61334 0.27997,1.46667 0.84,2.56 l 0.84,1.68 c -3e-5,0.61334 -0.36003,1.16 -1.08,1.64 l -2.28,1.28 -1.28,0 -0.72,-2.2 -0.199999,-1.28 c -2.5e-5,-0.50666 0.09331,-1.02666 0.279999,-1.56 l -0.599999,0 -1.079999,1.08 c -0.506691,0.40001 -1.10669,0.76001 -1.800001,1.08 -0.666688,0.32 -1.56002,0.65334 -2.679999,1 -1.120019,0.32 -2.373351,0.57334 -3.760001,0.76 -1.360014,0.18667 -2.893346,0.28 -4.599999,0.28 -4.400007,0 -7.746671,-0.90666 -10.040001,-2.72 -1.999999,-1.59999 -2.999998,-3.77333 -3,-6.52 2e-6,-1.99999 1.440001,-4.82665 4.32,-8.48 3.146662,-3.94664 6.933325,-7.25331 11.360001,-9.92 5.27998,-3.19997 10.586642,-4.79997 15.919998,-4.8 1.11997,3e-5 2.02664,0.13337 2.72,0.4 0.26664,0.1067 0.55997,0.25337 0.88,0.44 0.31997,0.16003 0.79997,0.44003 1.44,0.84 m -7.16,19.16 -0.96,-0.28 -1.08,0.08 -1.319998,0 0,0.88 0.92,1.12 0.959998,1.4 0.76,-1.76 0.72,-1.44 m 24.936251,-9.64 c -1.04002,0.21336 -1.90669,0.52002 -2.6,0.92 -0.56002,0.32002 -1.05335,0.48002 -1.48,0.48 -0.50668,2e-5 -0.96002,-0.37331 -1.36,-1.12 -0.37335,-0.77331 -0.81335,-1.15998 -1.32,-1.16 -1.25335,2e-5 -2.66668,1.14669 -4.24,3.44 -1.68001,2.48002 -2.52001,5.01335 -2.52,7.6 -1e-5,0.96001 0.15999,1.94668 0.48,2.96 l 0,8.08 -2.28,0 c -0.56,0 -1.320001,-1.28 -2.280001,-3.84 -1.17333,-3.22666 -1.76,-6.74666 -1.76,-10.56 l -0.04,-1.48 -0.04,-1.24 c 0,-0.85331 0.10667,-1.50665 0.32,-1.96 0.24,-0.45331 0.76,-0.99998 1.56,-1.64 l 1.32,0 0.24,1.04 0.04,0.96 c 0,0.21335 0,0.41335 0,0.6 -0.08,0.32002 -0.13333,0.56002 -0.16,0.72 l -0.16,1.04 c 0,0.40002 0.17333,0.89335 0.520001,1.48 1.44,-3.62665 3.14666,-6.33331 5.12,-8.12 1.62666,-1.46664 3.37332,-2.19997 5.24,-2.2 l 1.96,0.76 c 1.19998,0.45336 2.34665,0.78669 3.44,1 l 0,2.24 m 36.14812,17.68 -0.4,0.44 c -0.7467,0.58667 -2.09337,1.16001 -4.04,1.72 -1.65336,0.45334 -2.74669,0.68 -3.28,0.68 -2.48002,0 -4.68002,-0.6 -6.6,-1.8 l -4.76,-3.88 c -1.89335,1.52001 -4.21334,2.92001 -6.96,4.2 -2.74667,1.25334 -5.42667,1.88 -8.04,1.88 -0.56,0 -1.24,-0.26666 -2.04,-0.8 -0.8,-0.53333 -1.2,-1.19999 -1.2,-2 0,-2.37332 1.41333,-4.67999 4.24,-6.92 3.14666,-2.45332 6.86666,-3.67999 11.16,-3.68 1.03999,1e-5 1.71999,-0.42665 2.04,-1.28 0.13332,-0.66665 0.25332,-1.23998 0.36,-1.72 0.13332,-0.50665 0.27998,-0.98665 0.44,-1.44 -1.09335,-0.66665 -2.53335,-1.23998 -4.32,-1.72 -1.78668,-0.47998 -3.32001,-0.71998 -4.6,-0.72 -0.93334,2e-5 -1.62667,0.0267 -2.08,0.08 -0.45334,0.0267 -1.22667,0.10669 -2.32,0.24 -1.06667,0.10669 -1.90667,0.18669 -2.52,0.24 -0.58667,0.0533 -1.12,0.08 -1.6,0.08 l -1.96,-0.12 c -0.64,-0.08 -1.17333,-0.22665 -1.6,-0.44 -0.42666,-0.21331 -0.63999,-0.58664 -0.64,-1.12 1e-5,-0.55998 0.18667,-1.01331 0.56,-1.36 0.10667,-0.08 0.48001,-0.18664 1.12,-0.32 l 1.92,-0.12 c 0.58667,2e-5 1.22667,0.0134 1.92,0.04 0.69333,0.0267 1.44,0.08 2.24,0.16 0.48,2e-5 1.18666,0.08 2.12,0.24 2.61333,2e-5 5.03999,0.20002 7.28,0.6 2.95999,0.53336 5.29332,1.40002 7,2.6 2.10665,1.46669 3.15998,3.36002 3.16,5.68 -2e-5,0.66668 -0.40002,1.41335 -1.2,2.24 -0.80002,0.82668 -1.20002,1.70668 -1.2,2.64 -2e-5,1.62667 1.03998,3.12001 3.12,4.48 2.07998,1.36001 4.41331,2.04001 7,2.04 0.5333,1e-5 1.31997,-0.0933 2.36,-0.28 1.14663,-0.15999 1.9733,-0.34666 2.48,-0.56 l 0.84,0 m -19.48,-5.28 -0.36,-1.6 c -0.16001,-0.55999 -0.85335,-0.83999 -2.08,-0.84 -3.30668,1e-5 -6.42667,1.02668 -9.36,3.08 -2.4,1.68001 -3.6,2.94668 -3.6,3.8 0,0.45334 0.16,0.86667 0.48,1.24 0.16,0.13334 0.36,0.24001 0.6,0.32 0.24,0.08 0.54667,0.12001 0.92,0.12 2.13333,1e-5 4.75999,-0.87999 7.88,-2.64 l 5.52,-3.48 m 30.33125,-4.04 c -2e-5,1.68001 -0.70668,3.06668 -2.12,4.16 -1.52001,1.20001 -3.60001,1.80001 -6.24,1.8 -0.61334,1e-5 -1.33334,-0.08 -2.16,-0.24 -0.82667,-0.15999 -1.41334,-0.23999 -1.76,-0.24 l -0.96,0.12 -1.08,0.36 0,1.6 0.96,5.08 1,5.64 0.88,3.4 c 0,0.34666 -0.0267,0.62666 -0.08,0.84 l 0.16,0.16 0.2,0.4 c 0,0.18666 -0.2,0.35999 -0.6,0.52 -0.37334,0.15999 -1.08,0.23999 -2.12,0.24 -0.18667,-0.18667 -0.34667,-0.36001 -0.48,-0.52 -0.13333,-0.13334 -0.34667,-0.41334 -0.64,-0.84 -0.82667,-1.17334 -1.53333,-2.58667 -2.12,-4.24 -0.77333,-2.26667 -1.16,-4.64 -1.16,-7.12 l 0,-3.56 c 0,-5.46666 0.21334,-9.21332 0.64,-11.24 0.93333,-4.45331 2.97333,-6.67998 6.12,-6.68 2.42666,2e-5 4.91999,1.10669 7.48,3.32 2.71999,2.32002 4.07998,4.66668 4.08,7.04 m -2.8,0.4 c -1e-5,-1.83998 -1.05335,-3.57332 -3.16,-5.2 -1.78667,-1.33331 -3.52001,-2.11998 -5.2,-2.36 l -2.76,0.96 c -0.21334,0.85335 -0.32,1.54668 -0.32,2.08 l 0.2,3.04 0.12,3.08 3.16,0.72 c 1.17333,0.29334 2.37333,0.44001 3.6,0.44 1.73332,1e-5 2.89332,-0.15999 3.48,-0.48 0.58665,-0.31999 0.87999,-1.07999 0.88,-2.28 m 20.49875,13.6 c -0.85335,0.4 -1.56001,0.77333 -2.12,1.12 l -1.08,0.64 c -1.44001,0 -2.49334,-1.05333 -3.16,-3.16 -0.21334,-0.69333 -0.49334,-2.07999 -0.84,-4.16 -0.58667,-3.57332 -1.01334,-5.49332 -1.28,-5.76 -0.48001,0.34668 -1.2,1.22668 -2.16,2.64 -0.72,1.94667 -1.37334,3.57334 -1.96,4.88 -0.58667,1.30667 -1.13333,2.09334 -1.64,2.36 -0.24,-0.61333 -0.44,-1.34666 -0.6,-2.2 -0.10667,-0.82666 -0.17333,-1.38666 -0.2,-1.68 0,-0.29333 0,-0.53333 0,-0.72 0,-0.95999 -0.08,-1.95999 -0.24,-3 0.0533,-0.31999 0.08,-0.55999 0.08,-0.72 0,-0.10666 -0.0267,-0.27999 -0.08,-0.52 -0.0533,-0.23999 -0.17333,-0.59999 -0.36,-1.08 l -0.8,-4.64 -1.56,-9.08 -0.84,-5.08 -0.24,-1.16 -0.28,-1.28 c 0,-0.34663 0.0667,-0.6933 0.2,-1.04 0.08,-0.31997 0.30667,-0.70663 0.68,-1.16 1.04,0.24003 1.76,1.17337 2.16,2.8 0.21333,1.7867 0.37333,3.12003 0.48,4 0.21333,1.65336 0.52,3.88002 0.92,6.68 0.13333,0.66669 0.29333,1.58669 0.48,2.76 0.21333,1.17335 0.4,2.34668 0.56,3.52 0.37333,2.74668 0.56,4.94668 0.56,6.6 0,1.17334 -0.0667,1.97334 -0.2,2.4 l 1.32,-4.56 c 0.42666,-0.85332 0.81333,-1.49332 1.16,-1.92 0.72,-0.82665 1.09333,-1.26665 1.12,-1.32 0.26666,-0.39999 0.54666,-0.79999 0.84,-1.2 0.45333,-0.58665 0.94666,-0.87998 1.48,-0.88 0.87999,2e-5 1.50666,0.88001 1.88,2.64 0.47999,2.77334 0.86666,4.42668 1.16,4.96 0.66666,1.81334 1.23999,3.24001 1.72,4.28 0.93332,1.97334 1.87999,2.96 2.84,2.96 l 0,1.08 m 18.58313,-22.36 c -1.04002,0.21336 -1.90669,0.52002 -2.6,0.92 -0.56002,0.32002 -1.05335,0.48002 -1.48,0.48 -0.50668,2e-5 -0.96002,-0.37331 -1.36,-1.12 -0.37335,-0.77331 -0.81335,-1.15998 -1.32,-1.16 -1.25335,2e-5 -2.66668,1.14669 -4.24,3.44 -1.68001,2.48002 -2.52001,5.01335 -2.52,7.6 -1e-5,0.96001 0.15999,1.94668 0.48,2.96 l 0,8.08 -2.28,0 c -0.56001,0 -1.32001,-1.28 -2.28,-3.84 -1.17334,-3.22666 -1.76,-6.74666 -1.76,-10.56 l -0.04,-1.48 -0.04,-1.24 c 0,-0.85331 0.10666,-1.50665 0.32,-1.96 0.24,-0.45331 0.76,-0.99998 1.56,-1.64 l 1.32,0 0.24,1.04 0.04,0.96 c -10e-6,0.21335 -10e-6,0.41335 0,0.6 -0.08,0.32002 -0.13334,0.56002 -0.16,0.72 l -0.16,1.04 c -1e-5,0.40002 0.17333,0.89335 0.52,1.48 1.43999,-3.62665 3.14666,-6.33331 5.12,-8.12 1.62665,-1.46664 3.37332,-2.19997 5.24,-2.2 l 1.96,0.76 c 1.19998,0.45336 2.34665,0.78669 3.44,1 l 0,2.24 m 28.18812,19.56 c -3e-5,0.45334 -0.24003,0.96 -0.72,1.52 -0.64003,0.72 -1.44002,1.08 -2.4,1.08 -0.66669,0 -1.76002,-0.12 -3.28,-0.36 -1.49335,-0.24 -3.49335,-0.61333 -6,-1.12 -4.74668,-0.98666 -7.56001,-1.70666 -8.44,-2.16 -2.93334,-1.38666 -4.94667,-2.53332 -6.04,-3.44 -0.16,-0.15999 -0.45333,-0.46666 -0.88,-0.92 -0.42667,-0.45333 -0.93333,-1.05332 -1.52,-1.8 l -1.68,0.12 c -1.54666,10e-6 -2.81333,-0.37332 -3.8,-1.12 -1.11999,-0.87999 -1.67999,-1.78665 -1.68,-2.72 1e-5,-0.53332 0.24001,-0.98665 0.72,-1.36 0.45334,-0.37332 1.08001,-0.61332 1.88,-0.72 l 1.24,1.2 0.84,0.76 3.12,0.12 c 0,-2.66665 1.25333,-4.95998 3.76,-6.88 1.84,-1.35998 4.45333,-2.55998 7.84,-3.6 0.93332,-0.26664 1.83999,-0.43998 2.72,-0.52 l 2.24,-0.16 c 2.50665,2e-5 4.70665,0.57336 6.6,1.72 1.91998,1.12002 2.87998,2.53335 2.88,4.24 -2e-5,0.88002 -0.66669,1.90668 -2,3.08 -1.54669,1.36001 -3.70669,2.50668 -6.48,3.44 -3.41335,1.09334 -7.33334,1.64001 -11.76,1.64 l -0.76,-0.08 c -0.34667,1e-5 -0.53334,0.0933 -0.56,0.28 0,0.13334 0.28,0.48001 0.84,1.04 l 1.16,1 4.96,3 c 2.31999,0.80001 5.26665,1.20001 8.84,1.2 1.25331,1e-5 2.03998,-0.23999 2.36,-0.72 0.34665,-0.61333 1.13331,-1.07999 2.36,-1.4 l 1.56,0 2.08,3.64 m -6.24,-15.36 c -0.48002,-1.33331 -1.36002,-2.26665 -2.64,-2.8 -1.04002,-0.37331 -2.76002,-0.55998 -5.16,-0.56 -2.82668,2e-5 -5.25334,0.73335 -7.28,2.2 -1.86667,1.33335 -3.44,3.37335 -4.72,6.12 0.4,-0.15999 0.70667,-0.23999 0.92,-0.24 l 0.6,0.12 0.56,0.12 c 3.30666,1e-5 6.99999,-0.53332 11.08,-1.6 4.07998,-1.09332 6.29331,-2.21332 6.64,-3.36 m 39.73938,-9.32 -1.72,6 -1.68,5.44 c -1.44003,4.13334 -2.96003,7.50667 -4.56,10.12 -2.24003,3.65334 -4.45336,5.48 -6.64,5.48 -0.64002,0 -1.24002,-0.41333 -1.8,-1.24 -1.60002,-3.25333 -3.14669,-6.27999 -4.64,-9.08 l -0.6,0.68 -0.2,0.16 0.24,-0.12 c 0.08,0.24001 0.11998,0.44001 0.12,0.6 -2e-5,0.42668 -0.84002,1.68001 -2.52,3.76 -1.94668,2.34667 -3.53335,3.52 -4.76,3.52 -1.28001,0 -2.61334,-1.26666 -4,-3.8 -0.98667,-1.81333 -1.97334,-4.19999 -2.96,-7.16 l -1.2,-4.08 c -0.24,-0.45332 -0.65334,-0.87998 -1.24,-1.28 -0.56,-0.29331 -0.86667,-0.57331 -0.92,-0.84 0,-1.09331 0.16,-2.02665 0.48,-2.8 0.45333,-0.98664 1.16,-1.47998 2.12,-1.48 0.66666,2e-5 1.46666,1.46669 2.4,4.4 0.95999,2.90668 1.43999,4.86668 1.44,5.88 -1e-5,0.56001 0.42666,1.73334 1.28,3.52 0.95999,2.05334 1.97332,3.60001 3.04,4.64 2.34665,-1.94666 3.83999,-4.45332 4.48,-7.52 l 0.44,-6.72 c -2e-5,-1.94665 0.63998,-2.91998 1.92,-2.92 l 0.24,0.12 0.6,0.04 c 0.18665,2e-5 0.38665,2e-5 0.6,0 0.31998,-0.08 0.55998,-0.13331 0.72,-0.16 -2e-5,0.34669 0.0533,0.94669 0.16,1.8 0.10665,0.85335 0.27998,1.97335 0.52,3.36 0.55998,3.36001 1.19998,6.17334 1.92,8.44 0.95998,2.96001 1.95998,4.44001 3,4.44 1.75997,1e-5 3.35997,-2.10666 4.8,-6.32 0.23997,-0.69332 0.6133,-2.05332 1.12,-4.08 0.50663,-2.05332 1.11997,-4.62665 1.84,-7.72 0.95997,-4.23997 1.79996,-6.35997 2.52,-6.36 0.2933,3e-5 0.5733,0.13336 0.84,0.4 0.63996,0.58669 1.50663,0.88003 2.6,0.88 m 17.60937,5.12 c -1.04002,0.21336 -1.90668,0.52002 -2.6,0.92 -0.56001,0.32002 -1.05335,0.48002 -1.48,0.48 -0.50668,2e-5 -0.96001,-0.37331 -1.36,-1.12 -0.37334,-0.77331 -0.81334,-1.15998 -1.32,-1.16 -1.25334,2e-5 -2.66667,1.14669 -4.24,3.44 -1.68,2.48002 -2.52,5.01335 -2.52,7.6 0,0.96001 0.16,1.94668 0.48,2.96 l 0,8.08 -2.28,0 c -0.56,0 -1.32,-1.28 -2.28,-3.84 -1.17333,-3.22666 -1.76,-6.74666 -1.76,-10.56 l -0.04,-1.48 -0.04,-1.24 c 0,-0.85331 0.10667,-1.50665 0.32,-1.96 0.24,-0.45331 0.76,-0.99998 1.56,-1.64 l 1.32,0 0.24,1.04 0.04,0.96 c 0,0.21335 0,0.41335 0,0.6 -0.08,0.32002 -0.13333,0.56002 -0.16,0.72 l -0.16,1.04 c 0,0.40002 0.17333,0.89335 0.52,1.48 1.44,-3.62665 3.14666,-6.33331 5.12,-8.12 1.62666,-1.46664 3.37332,-2.19997 5.24,-2.2 l 1.96,0.76 c 1.19998,0.45336 2.34665,0.78669 3.44,1 l 0,2.24 m 7.62813,-13.64 c -1e-5,1.04003 -0.16001,1.73337 -0.48,2.08 -0.32001,0.32003 -1.00001,0.64003 -2.04,0.96 l -0.48,-1.56 c -0.16001,-0.79997 -0.24001,-1.4933 -0.24,-2.08 -10e-6,-0.50663 0.04,-0.86663 0.12,-1.08 0.10666,-0.23996 0.30666,-0.35996 0.6,-0.36 0.93332,4e-5 1.58666,0.12004 1.96,0.36 0.37332,0.21337 0.55999,0.77337 0.56,1.68 m 15.8,23.68 -0.04,0.4 c -0.0267,0.13334 -0.0534,0.21334 -0.08,0.24 -3e-5,2.34668 -1.57336,4.36001 -4.72,6.04 -3.89335,2.02667 -7.38668,3.04 -10.48,3.04 -2.13334,0 -3.57334,-0.53333 -4.32,-1.6 -0.18667,-0.29333 -0.69334,-1.78666 -1.52,-4.48 -0.32001,0.08 -0.72001,0.28001 -1.2,0.6 l -0.56,0.44 -4.56,0 0,-2.52 c 3.04,-0.79999 5.17333,-1.94665 6.4,-3.44 0.74666,-0.95999 1.34666,-2.54665 1.8,-4.76 0.47999,-2.21331 1.05332,-3.89331 1.72,-5.04 l 2.56,1 c 0.53332,0.24002 1.19999,0.74669 2,1.52 -1.30668,1.62669 -2.36001,3.50668 -3.16,5.64 -0.80001,2.10668 -1.20001,4.13334 -1.2,6.08 -1e-5,1.20001 0.27999,2.17334 0.84,2.92 0.55999,0.74667 1.29332,1.12001 2.2,1.12 0.53332,1e-5 1.66665,-0.19999 3.4,-0.6 2.66665,-0.61332 4.78665,-1.38666 6.36,-2.32 2.26664,-1.30666 3.39997,-2.86666 3.4,-4.68 l 0.64,-0.12 0.4,0.12 c 0.08,0.08 0.11997,0.21335 0.12,0.4 m 14.56625,-3.48 0,0.44 c -2e-5,0.26668 -0.10669,0.50668 -0.32,0.72 -0.18669,0.29335 -0.32002,0.50668 -0.4,0.64 -0.16002,0.24001 -0.44002,0.36001 -0.84,0.36 -0.08,1e-5 -0.28002,-0.0267 -0.6,-0.08 -0.69335,-0.26665 -1.24002,-0.45332 -1.64,-0.56 -1.33335,-0.39999 -2.38668,-0.59999 -3.16,-0.6 -0.66668,10e-6 -1.14668,0.14668 -1.44,0.44 -0.10668,0.10668 -0.18668,0.46668 -0.24,1.08 -0.0533,0.61335 -0.08,1.38668 -0.08,2.32 -1e-5,1.78668 0.0667,3.92001 0.2,6.4 0.0267,0.88001 0.10665,2.05334 0.24,3.52 l -1.92,0 c -0.72001,-0.16 -2.24001,-1.36 -4.56,-3.6 -0.8,-0.77333 -1.54667,-2.13333 -2.24,-4.08 -1.04,-2.90666 -1.56,-5.03999 -1.56,-6.4 0,-1.03998 1.12,-1.55998 3.36,-1.56 2.26666,2e-5 3.39999,-0.46665 3.4,-1.4 -10e-6,-0.39998 -0.12001,-1.22665 -0.36,-2.48 -0.24001,-1.27998 -0.46667,-2.34664 -0.68,-3.2 -0.72001,-2.93331 -1.08001,-4.59997 -1.08,-5 l -5,-13.84 0.88,-1.28 c 0.24,-0.26662 0.58666,-0.41329 1.04,-0.44 0.42666,4e-5 1.44,2.14671 3.04,6.44 1.62666,4.29337 2.66666,7.56003 3.12,9.8 l 1.8,10.68 c 0.18666,0.16002 0.77332,0.34668 1.76,0.56 1.01332,0.18668 1.87999,0.28002 2.6,0.28 2.15998,2e-5 3.47998,0.04 3.96,0.12 0.47998,0.08 0.71998,0.32002 0.72,0.72 m -10.88,11.68 c 0.10666,-0.82666 0.17332,-1.50666 0.2,-2.04 0.13332,-1.59999 0.19999,-3.01332 0.2,-4.24 -1e-5,-1.19999 -0.0667,-2.15999 -0.2,-2.88 -0.10668,-0.74665 -0.32001,-1.18665 -0.64,-1.32 -0.29334,-0.13332 -0.64001,-0.22665 -1.04,-0.28 -0.37334,-0.0533 -0.74667,-0.08 -1.12,-0.08 -0.69334,1e-5 -1.36001,0.08 -2,0.24 -0.64,0.16001 -0.96,0.29335 -0.96,0.4 0,0.16001 0.0933,0.61335 0.28,1.36 0.10666,0.48001 0.22666,0.96001 0.36,1.44 0.24,1.14668 1.01333,2.62668 2.32,4.44 1.17333,1.62667 2.03999,2.61334 2.6,2.96 m 36.07375,1.32 c -3e-5,0.45334 -0.24003,0.96 -0.72,1.52 -0.64003,0.72 -1.44003,1.08 -2.4,1.08 -0.66669,0 -1.76003,-0.12 -3.28,-0.36 -1.49336,-0.24 -3.49336,-0.61333 -6,-1.12 -4.74668,-0.98666 -7.56001,-1.70666 -8.44,-2.16 -2.93334,-1.38666 -4.94667,-2.53332 -6.04,-3.44 -0.16,-0.15999 -0.45334,-0.46666 -0.88,-0.92 -0.42667,-0.45333 -0.93334,-1.05332 -1.52,-1.8 l -1.68,0.12 c -1.54667,10e-6 -2.81333,-0.37332 -3.8,-1.12 -1.12,-0.87999 -1.68,-1.78665 -1.68,-2.72 0,-0.53332 0.24,-0.98665 0.72,-1.36 0.45334,-0.37332 1.08,-0.61332 1.88,-0.72 l 1.24,1.2 0.84,0.76 3.12,0.12 c 0,-2.66665 1.25333,-4.95998 3.76,-6.88 1.83999,-1.35998 4.45332,-2.55998 7.84,-3.6 0.93332,-0.26664 1.83998,-0.43998 2.72,-0.52 l 2.24,-0.16 c 2.50664,2e-5 4.70664,0.57336 6.6,1.72 1.91997,1.12002 2.87997,2.53335 2.88,4.24 -3e-5,0.88002 -0.6667,1.90668 -2,3.08 -1.54669,1.36001 -3.70669,2.50668 -6.48,3.44 -3.41335,1.09334 -7.33335,1.64001 -11.76,1.64 l -0.76,-0.08 c -0.34667,1e-5 -0.53334,0.0933 -0.56,0.28 -10e-6,0.13334 0.27999,0.48001 0.84,1.04 l 1.16,1 4.96,3 c 2.31998,0.80001 5.26665,1.20001 8.84,1.2 1.25331,1e-5 2.03997,-0.23999 2.36,-0.72 0.34664,-0.61333 1.13331,-1.07999 2.36,-1.4 l 1.56,0 2.08,3.64 m -6.24,-15.36 c -0.48002,-1.33331 -1.36002,-2.26665 -2.64,-2.8 -1.04002,-0.37331 -2.76002,-0.55998 -5.16,-0.56 -2.82668,2e-5 -5.25335,0.73335 -7.28,2.2 -1.86668,1.33335 -3.44001,3.37335 -4.72,6.12 0.39999,-0.15999 0.70666,-0.23999 0.92,-0.24 l 0.6,0.12 0.56,0.12 c 3.30666,1e-5 6.99999,-0.53332 11.08,-1.6 4.07998,-1.09332 6.29331,-2.21332 6.64,-3.36"
       id="flowRoot2393" />
    <g
       id="g4033"
       transform="translate(-10.588235,56.470588)"
       style="opacity:0.60240951;filter:url(#filter4201)">
      <g
         transform="matrix(0.96527024,0.26125343,-0.26125343,0.96527024,91.927938,23.238586)"
         id="g3737">
        <path
           sodipodi:type="arc"
           style="fill:#ff0000;fill-rule:evenodd;stroke:#000000;stroke-width:1px;stroke-linecap:butt;stroke-linejoin:miter;stroke-opacity:1"
           id="path2912"
           sodipodi:cx="41.764706"
           sodipodi:cy="32.64706"
           sodipodi:rx="12.941176"
           sodipodi:ry="12.647058"
           d="m 54.705882,32.64706 c 0,6.984777 -5.793962,12.647058 -12.941176,12.647058 -7.147215,0 -12.941177,-5.662281 -12.941177,-12.647058 0,-6.984777 5.793962,-12.647057 12.941177,-12.647057 7.147214,0 12.941176,5.66228 12.941176,12.647057 z"
           transform="matrix(0.34755848,0,0,0.34755848,18.479446,12.722611)" />
        <path
           d="m 54.705882,32.64706 c 0,6.984777 -5.793962,12.647058 -12.941176,12.647058 -7.147215,0 -12.941177,-5.662281 -12.941177,-12.647058 0,-6.984777 5.793962,-12.647057 12.941177,-12.647057 7.147214,0 12.941176,5.66228 12.941176,12.647057 z"
           sodipodi:ry="12.647058"
           sodipodi:rx="12.941176"
           sodipodi:cy="32.64706"
           sodipodi:cx="41.764706"
           id="path2922"
           style="fill:#ff0000;fill-rule:evenodd;stroke:#000000;stroke-width:1px;stroke-linecap:butt;stroke-linejoin:miter;stroke-opacity:1"
           sodipodi:type="arc"
           transform="matrix(0.34755848,0,0,0.34755848,42.399648,15.380412)" />
        <path
           transform="matrix(0.34755848,0,0,0.34755848,21.546139,31.940551)"
           sodipodi:type="arc"
           style="fill:#ff0000;fill-rule:evenodd;stroke:#000000;stroke-width:1px;stroke-linecap:butt;stroke-linejoin:miter;stroke-opacity:1"
           id="path2924"
           sodipodi:cx="41.764706"
           sodipodi:cy="32.64706"
           sodipodi:rx="12.941176"
           sodipodi:ry="12.647058"
           d="m 54.705882,32.64706 c 0,6.984777 -5.793962,12.647058 -12.941176,12.647058 -7.147215,0 -12.941177,-5.662281 -12.941177,-12.647058 0,-6.984777 5.793962,-12.647057 12.941177,-12.647057 7.147214,0 12.941176,5.66228 12.941176,12.647057 z" />
        <path
           d="m 54.705882,32.64706 c 0,6.984777 -5.793962,12.647058 -12.941176,12.647058 -7.147215,0 -12.941177,-5.662281 -12.941177,-12.647058 0,-6.984777 5.793962,-12.647057 12.941177,-12.647057 7.147214,0 12.941176,5.66228 12.941176,12.647057 z"
           sodipodi:ry="12.647058"
           sodipodi:rx="12.941176"
           sodipodi:cy="32.64706"
           sodipodi:cx="41.764706"
           id="path2926"
           style="fill:#ff0000;fill-rule:evenodd;stroke:#000000;stroke-width:1px;stroke-linecap:butt;stroke-linejoin:miter;stroke-opacity:1"
           sodipodi:type="arc"
           transform="matrix(0.34755848,0,0,0.34755848,41.172971,37.460598)" />
        <path
           transform="matrix(0.34755848,0,0,0.34755848,28.701754,52.589613)"
           sodipodi:type="arc"
           style="fill:#ff0000;fill-rule:evenodd;stroke:#000000;stroke-width:1px;stroke-linecap:butt;stroke-linejoin:miter;stroke-opacity:1"
           id="path2928"
           sodipodi:cx="41.764706"
           sodipodi:cy="32.64706"
           sodipodi:rx="12.941176"
           sodipodi:ry="12.647058"
           d="m 54.705882,32.64706 c 0,6.984777 -5.793962,12.647058 -12.941176,12.647058 -7.147215,0 -12.941177,-5.662281 -12.941177,-12.647058 0,-6.984777 5.793962,-12.647057 12.941177,-12.647057 7.147214,0 12.941176,5.66228 12.941176,12.647057 z" />
        <path
           d="m 54.705882,32.64706 c 0,6.984777 -5.793962,12.647058 -12.941176,12.647058 -7.147215,0 -12.941177,-5.662281 -12.941177,-12.647058 0,-6.984777 5.793962,-12.647057 12.941177,-12.647057 7.147214,0 12.941176,5.66228 12.941176,12.647057 z"
           sodipodi:ry="12.647058"
           sodipodi:rx="12.941176"
           sodipodi:cy="32.64706"
           sodipodi:cx="41.764706"
           id="path2930"
           style="fill:#0000ff;fill-opacity:1;fill-rule:evenodd;stroke:#000000;stroke-width:1px;stroke-linecap:butt;stroke-linejoin:miter;stroke-opacity:1"
           sodipodi:type="arc"
           transform="matrix(0.34755848,0,0,0.34755848,58.959788,26.829396)" />
        <path
           style="fill:none;stroke:#000000;stroke-width:0.34755847px;stroke-linecap:butt;stroke-linejoin:miter;stroke-opacity:1"
           d="M 41.633986,59.367004 37.645262,47.856685"
           id="path3718"
           inkscape:connector-type="polyline"
           inkscape:connection-end="#path2924"
           inkscape:connection-start="#path2928" />
        <path
           style="fill:none;stroke:#000000;stroke-width:0.34755847px;stroke-linecap:butt;stroke-linejoin:miter;stroke-opacity:1"
           d="m 51.922004,53.376732 -4.937928,5.990272"
           id="path3720"
           inkscape:connector-type="polyline"
           inkscape:connection-start="#path2926"
           inkscape:connection-end="#path2928" />
        <path
           style="fill:none;stroke:#000000;stroke-width:0.34755847px;stroke-linecap:butt;stroke-linejoin:miter;stroke-opacity:1"
           d="M 55.942503,44.237989 56.661472,31.296546"
           id="path3722"
           inkscape:connector-type="polyline"
           inkscape:connection-start="#path2926"
           inkscape:connection-end="#path2922" />
        <path
           style="fill:none;stroke:#000000;stroke-width:0.34755847px;stroke-linecap:butt;stroke-linejoin:miter;stroke-opacity:1"
           d="M 35.332662,38.717942 33.724279,28.638745"
           id="path3724"
           inkscape:connector-type="polyline"
           inkscape:connection-start="#path2924"
           inkscape:connection-end="#path2912" />
        <path
           style="fill:none;stroke:#000000;stroke-width:0.34755847px;stroke-linecap:butt;stroke-linejoin:miter;stroke-opacity:1"
           d="m 37.666718,24.58844 14.577013,1.619668"
           id="path3728"
           inkscape:connector-type="polyline"
           inkscape:connection-start="#path2912"
           inkscape:connection-end="#path2922" />
        <path
           style="fill:none;stroke:#000000;stroke-width:0.34755847px;stroke-linecap:butt;stroke-linejoin:miter;stroke-opacity:1"
           d="m 61.58692,29.956919 7.216951,4.989496"
           id="path3730"
           inkscape:connector-type="polyline"
           inkscape:connection-start="#path2922"
           inkscape:connection-end="#path2930" />
        <path
           style="fill:none;stroke:#000000;stroke-width:0.34755847px;stroke-linecap:butt;stroke-linejoin:miter;stroke-opacity:1"
           d="m 60.360243,46.015143 8.443628,-5.046766"
           id="path3732"
           inkscape:connector-type="polyline"
           inkscape:connection-start="#path2926"
           inkscape:connection-end="#path2930" />
        <path
           style="fill:none;stroke:#000000;stroke-width:1px;stroke-linecap:butt;stroke-linejoin:miter;stroke-opacity:1"
           d="m 156.48528,83.837909 8.71821,11.004486"
           id="path4111"
           transform="matrix(0.96527025,-0.26125343,0.26125343,0.96527025,-94.806464,1.5849736)"
           inkscape:connector-type="polyline"
           inkscape:connection-start="#path2930"
           inkscape:connection-end="#path3975" />
      </g>
      <g
         transform="matrix(-0.9805457,0.19629093,-0.19629093,-0.9805457,278.90927,122.74764)"
         id="g3752">
        <path
           transform="matrix(0.34755848,0,0,0.34755848,18.479446,12.722611)"
           d="m 54.705882,32.64706 c 0,6.984777 -5.793962,12.647058 -12.941176,12.647058 -7.147215,0 -12.941177,-5.662281 -12.941177,-12.647058 0,-6.984777 5.793962,-12.647057 12.941177,-12.647057 7.147214,0 12.941176,5.66228 12.941176,12.647057 z"
           sodipodi:ry="12.647058"
           sodipodi:rx="12.941176"
           sodipodi:cy="32.64706"
           sodipodi:cx="41.764706"
           id="path3754"
           style="fill:#ff0000;fill-rule:evenodd;stroke:#000000;stroke-width:1px;stroke-linecap:butt;stroke-linejoin:miter;stroke-opacity:1"
           sodipodi:type="arc" />
        <path
           transform="matrix(0.34755848,0,0,0.34755848,42.399648,15.380412)"
           sodipodi:type="arc"
           style="fill:#ff0000;fill-rule:evenodd;stroke:#000000;stroke-width:1px;stroke-linecap:butt;stroke-linejoin:miter;stroke-opacity:1"
           id="path3756"
           sodipodi:cx="41.764706"
           sodipodi:cy="32.64706"
           sodipodi:rx="12.941176"
           sodipodi:ry="12.647058"
           d="m 54.705882,32.64706 c 0,6.984777 -5.793962,12.647058 -12.941176,12.647058 -7.147215,0 -12.941177,-5.662281 -12.941177,-12.647058 0,-6.984777 5.793962,-12.647057 12.941177,-12.647057 7.147214,0 12.941176,5.66228 12.941176,12.647057 z" />
        <path
           d="m 54.705882,32.64706 c 0,6.984777 -5.793962,12.647058 -12.941176,12.647058 -7.147215,0 -12.941177,-5.662281 -12.941177,-12.647058 0,-6.984777 5.793962,-12.647057 12.941177,-12.647057 7.147214,0 12.941176,5.66228 12.941176,12.647057 z"
           sodipodi:ry="12.647058"
           sodipodi:rx="12.941176"
           sodipodi:cy="32.64706"
           sodipodi:cx="41.764706"
           id="path3758"
           style="fill:#ff0000;fill-rule:evenodd;stroke:#000000;stroke-width:1px;stroke-linecap:butt;stroke-linejoin:miter;stroke-opacity:1"
           sodipodi:type="arc"
           transform="matrix(0.34755848,0,0,0.34755848,21.546139,31.940551)" />
        <path
           transform="matrix(0.34755848,0,0,0.34755848,41.172971,37.460598)"
           sodipodi:type="arc"
           style="fill:#ff0000;fill-rule:evenodd;stroke:#000000;stroke-width:1px;stroke-linecap:butt;stroke-linejoin:miter;stroke-opacity:1"
           id="path3760"
           sodipodi:cx="41.764706"
           sodipodi:cy="32.64706"
           sodipodi:rx="12.941176"
           sodipodi:ry="12.647058"
           d="m 54.705882,32.64706 c 0,6.984777 -5.793962,12.647058 -12.941176,12.647058 -7.147215,0 -12.941177,-5.662281 -12.941177,-12.647058 0,-6.984777 5.793962,-12.647057 12.941177,-12.647057 7.147214,0 12.941176,5.66228 12.941176,12.647057 z" />
        <path
           d="m 54.705882,32.64706 c 0,6.984777 -5.793962,12.647058 -12.941176,12.647058 -7.147215,0 -12.941177,-5.662281 -12.941177,-12.647058 0,-6.984777 5.793962,-12.647057 12.941177,-12.647057 7.147214,0 12.941176,5.66228 12.941176,12.647057 z"
           sodipodi:ry="12.647058"
           sodipodi:rx="12.941176"
           sodipodi:cy="32.64706"
           sodipodi:cx="41.764706"
           id="path3762"
           style="fill:#ff0000;fill-rule:evenodd;stroke:#000000;stroke-width:1px;stroke-linecap:butt;stroke-linejoin:miter;stroke-opacity:1"
           sodipodi:type="arc"
           transform="matrix(0.34755848,0,0,0.34755848,28.701754,52.589613)" />
        <path
           transform="matrix(0.34755848,0,0,0.34755848,58.959788,26.829396)"
           sodipodi:type="arc"
           style="fill:#0000ff;fill-opacity:1;fill-rule:evenodd;stroke:#000000;stroke-width:1px;stroke-linecap:butt;stroke-linejoin:miter;stroke-opacity:1"
           id="path3764"
           sodipodi:cx="41.764706"
           sodipodi:cy="32.64706"
           sodipodi:rx="12.941176"
           sodipodi:ry="12.647058"
           d="m 54.705882,32.64706 c 0,6.984777 -5.793962,12.647058 -12.941176,12.647058 -7.147215,0 -12.941177,-5.662281 -12.941177,-12.647058 0,-6.984777 5.793962,-12.647057 12.941177,-12.647057 7.147214,0 12.941176,5.66228 12.941176,12.647057 z" />
        <path
           inkscape:connection-end="#path2924"
           inkscape:connection-start="#path2928"
           inkscape:connector-type="polyline"
           id="path3766"
           d="M 41.633986,59.367004 37.645262,47.856685"
           style="fill:none;stroke:#000000;stroke-width:0.34755847px;stroke-linecap:butt;stroke-linejoin:miter;stroke-opacity:1" />
        <path
           inkscape:connection-end="#path2928"
           inkscape:connection-start="#path2926"
           inkscape:connector-type="polyline"
           id="path3768"
           d="m 51.922004,53.376732 -4.937928,5.990272"
           style="fill:none;stroke:#000000;stroke-width:0.34755847px;stroke-linecap:butt;stroke-linejoin:miter;stroke-opacity:1" />
        <path
           inkscape:connection-end="#path2922"
           inkscape:connection-start="#path2926"
           inkscape:connector-type="polyline"
           id="path3770"
           d="M 55.942503,44.237989 56.661472,31.296546"
           style="fill:none;stroke:#000000;stroke-width:0.34755847px;stroke-linecap:butt;stroke-linejoin:miter;stroke-opacity:1" />
        <path
           inkscape:connection-end="#path2912"
           inkscape:connection-start="#path2924"
           inkscape:connector-type="polyline"
           id="path3772"
           d="M 35.332662,38.717942 33.724279,28.638745"
           style="fill:none;stroke:#000000;stroke-width:0.34755847px;stroke-linecap:butt;stroke-linejoin:miter;stroke-opacity:1" />
        <path
           inkscape:connection-end="#path2922"
           inkscape:connection-start="#path2912"
           inkscape:connector-type="polyline"
           id="path3774"
           d="m 37.666718,24.58844 14.577013,1.619668"
           style="fill:none;stroke:#000000;stroke-width:0.34755847px;stroke-linecap:butt;stroke-linejoin:miter;stroke-opacity:1" />
        <path
           inkscape:connection-end="#path2930"
           inkscape:connection-start="#path2922"
           inkscape:connector-type="polyline"
           id="path3776"
           d="m 61.58692,29.956919 7.216951,4.989496"
           style="fill:none;stroke:#000000;stroke-width:0.34755847px;stroke-linecap:butt;stroke-linejoin:miter;stroke-opacity:1" />
        <path
           inkscape:connection-end="#path2930"
           inkscape:connection-start="#path2926"
           inkscape:connector-type="polyline"
           id="path3778"
           d="m 60.360243,46.015143 8.443628,-5.046766"
           style="fill:none;stroke:#000000;stroke-width:0.34755847px;stroke-linecap:butt;stroke-linejoin:miter;stroke-opacity:1" />
        <path
           inkscape:connection-end="#path3975"
           inkscape:connection-start="#path3764"
           inkscape:connector-type="polyline"
           transform="matrix(-0.9805457,-0.19629093,0.19629093,-0.9805457,249.38904,175.10703)"
           id="path4027"
           d="m 194.59514,99.685944 -21.1,-0.224478"
           style="fill:none;stroke:#000000;stroke-width:1px;stroke-linecap:butt;stroke-linejoin:miter;stroke-opacity:1" />
      </g>
      <g
         id="g3780"
         transform="matrix(0.89530373,-0.44545621,0.44545621,0.89530373,62.234074,110.37074)">
        <path
           sodipodi:type="arc"
           style="fill:#ff0000;fill-rule:evenodd;stroke:#000000;stroke-width:1px;stroke-linecap:butt;stroke-linejoin:miter;stroke-opacity:1"
           id="path3782"
           sodipodi:cx="41.764706"
           sodipodi:cy="32.64706"
           sodipodi:rx="12.941176"
           sodipodi:ry="12.647058"
           d="m 54.705882,32.64706 c 0,6.984777 -5.793962,12.647058 -12.941176,12.647058 -7.147215,0 -12.941177,-5.662281 -12.941177,-12.647058 0,-6.984777 5.793962,-12.647057 12.941177,-12.647057 7.147214,0 12.941176,5.66228 12.941176,12.647057 z"
           transform="matrix(0.34755848,0,0,0.34755848,18.479446,12.722611)" />
        <path
           d="m 54.705882,32.64706 c 0,6.984777 -5.793962,12.647058 -12.941176,12.647058 -7.147215,0 -12.941177,-5.662281 -12.941177,-12.647058 0,-6.984777 5.793962,-12.647057 12.941177,-12.647057 7.147214,0 12.941176,5.66228 12.941176,12.647057 z"
           sodipodi:ry="12.647058"
           sodipodi:rx="12.941176"
           sodipodi:cy="32.64706"
           sodipodi:cx="41.764706"
           id="path3784"
           style="fill:#ff0000;fill-rule:evenodd;stroke:#000000;stroke-width:1px;stroke-linecap:butt;stroke-linejoin:miter;stroke-opacity:1"
           sodipodi:type="arc"
           transform="matrix(0.34755848,0,0,0.34755848,42.399648,15.380412)" />
        <path
           transform="matrix(0.34755848,0,0,0.34755848,21.546139,31.940551)"
           sodipodi:type="arc"
           style="fill:#ff0000;fill-rule:evenodd;stroke:#000000;stroke-width:1px;stroke-linecap:butt;stroke-linejoin:miter;stroke-opacity:1"
           id="path3786"
           sodipodi:cx="41.764706"
           sodipodi:cy="32.64706"
           sodipodi:rx="12.941176"
           sodipodi:ry="12.647058"
           d="m 54.705882,32.64706 c 0,6.984777 -5.793962,12.647058 -12.941176,12.647058 -7.147215,0 -12.941177,-5.662281 -12.941177,-12.647058 0,-6.984777 5.793962,-12.647057 12.941177,-12.647057 7.147214,0 12.941176,5.66228 12.941176,12.647057 z" />
        <path
           d="m 54.705882,32.64706 c 0,6.984777 -5.793962,12.647058 -12.941176,12.647058 -7.147215,0 -12.941177,-5.662281 -12.941177,-12.647058 0,-6.984777 5.793962,-12.647057 12.941177,-12.647057 7.147214,0 12.941176,5.66228 12.941176,12.647057 z"
           sodipodi:ry="12.647058"
           sodipodi:rx="12.941176"
           sodipodi:cy="32.64706"
           sodipodi:cx="41.764706"
           id="path3788"
           style="fill:#ff0000;fill-rule:evenodd;stroke:#000000;stroke-width:1px;stroke-linecap:butt;stroke-linejoin:miter;stroke-opacity:1"
           sodipodi:type="arc"
           transform="matrix(0.34755848,0,0,0.34755848,41.172971,37.460598)" />
        <path
           transform="matrix(0.34755848,0,0,0.34755848,28.701754,52.589613)"
           sodipodi:type="arc"
           style="fill:#ff0000;fill-rule:evenodd;stroke:#000000;stroke-width:1px;stroke-linecap:butt;stroke-linejoin:miter;stroke-opacity:1"
           id="path3790"
           sodipodi:cx="41.764706"
           sodipodi:cy="32.64706"
           sodipodi:rx="12.941176"
           sodipodi:ry="12.647058"
           d="m 54.705882,32.64706 c 0,6.984777 -5.793962,12.647058 -12.941176,12.647058 -7.147215,0 -12.941177,-5.662281 -12.941177,-12.647058 0,-6.984777 5.793962,-12.647057 12.941177,-12.647057 7.147214,0 12.941176,5.66228 12.941176,12.647057 z" />
        <path
           d="m 54.705882,32.64706 c 0,6.984777 -5.793962,12.647058 -12.941176,12.647058 -7.147215,0 -12.941177,-5.662281 -12.941177,-12.647058 0,-6.984777 5.793962,-12.647057 12.941177,-12.647057 7.147214,0 12.941176,5.66228 12.941176,12.647057 z"
           sodipodi:ry="12.647058"
           sodipodi:rx="12.941176"
           sodipodi:cy="32.64706"
           sodipodi:cx="41.764706"
           id="path3792"
           style="fill:#0000ff;fill-opacity:1;fill-rule:evenodd;stroke:#000000;stroke-width:1px;stroke-linecap:butt;stroke-linejoin:miter;stroke-opacity:1"
           sodipodi:type="arc"
           transform="matrix(0.34755848,0,0,0.34755848,58.959788,26.829396)" />
        <path
           style="fill:none;stroke:#000000;stroke-width:0.34755847px;stroke-linecap:butt;stroke-linejoin:miter;stroke-opacity:1"
           d="M 41.633986,59.367004 37.645262,47.856685"
           id="path3794"
           inkscape:connector-type="polyline"
           inkscape:connection-start="#path2928"
           inkscape:connection-end="#path2924" />
        <path
           style="fill:none;stroke:#000000;stroke-width:0.34755847px;stroke-linecap:butt;stroke-linejoin:miter;stroke-opacity:1"
           d="m 51.922004,53.376732 -4.937928,5.990272"
           id="path3796"
           inkscape:connector-type="polyline"
           inkscape:connection-start="#path2926"
           inkscape:connection-end="#path2928" />
        <path
           style="fill:none;stroke:#000000;stroke-width:0.34755847px;stroke-linecap:butt;stroke-linejoin:miter;stroke-opacity:1"
           d="M 55.942503,44.237989 56.661472,31.296546"
           id="path3798"
           inkscape:connector-type="polyline"
           inkscape:connection-start="#path2926"
           inkscape:connection-end="#path2922" />
        <path
           style="fill:none;stroke:#000000;stroke-width:0.34755847px;stroke-linecap:butt;stroke-linejoin:miter;stroke-opacity:1"
           d="M 35.332662,38.717942 33.724279,28.638745"
           id="path3800"
           inkscape:connector-type="polyline"
           inkscape:connection-start="#path2924"
           inkscape:connection-end="#path2912" />
        <path
           style="fill:none;stroke:#000000;stroke-width:0.34755847px;stroke-linecap:butt;stroke-linejoin:miter;stroke-opacity:1"
           d="m 37.666718,24.58844 14.577013,1.619668"
           id="path3802"
           inkscape:connector-type="polyline"
           inkscape:connection-start="#path2912"
           inkscape:connection-end="#path2922" />
        <path
           style="fill:none;stroke:#000000;stroke-width:0.34755847px;stroke-linecap:butt;stroke-linejoin:miter;stroke-opacity:1"
           d="m 61.58692,29.956919 7.216951,4.989496"
           id="path3804"
           inkscape:connector-type="polyline"
           inkscape:connection-start="#path2922"
           inkscape:connection-end="#path2930" />
        <path
           style="fill:none;stroke:#000000;stroke-width:0.34755847px;stroke-linecap:butt;stroke-linejoin:miter;stroke-opacity:1"
           d="m 60.360243,46.015143 8.443628,-5.046766"
           id="path3806"
           inkscape:connector-type="polyline"
           inkscape:connection-start="#path2926"
           inkscape:connection-end="#path2930" />
        <path
           inkscape:connection-end="#path3975"
           inkscape:connection-start="#path3792"
           inkscape:connector-type="polyline"
           transform="matrix(0.89530373,0.44545621,-0.44545621,0.89530373,-6.553067,-126.53789)"
           id="path4031"
           d="m 149.16593,109.65991 14.98601,-7.81269"
           style="fill:none;stroke:#000000;stroke-width:1px;stroke-linecap:butt;stroke-linejoin:miter;stroke-opacity:1" />
      </g>
      <g
         transform="matrix(-0.08120012,0.99669782,-0.99669782,-0.08120012,223.76852,5.1046456)"
         id="g3808">
        <path
           transform="matrix(0.34755848,0,0,0.34755848,18.479446,12.722611)"
           d="m 54.705882,32.64706 c 0,6.984777 -5.793962,12.647058 -12.941176,12.647058 -7.147215,0 -12.941177,-5.662281 -12.941177,-12.647058 0,-6.984777 5.793962,-12.647057 12.941177,-12.647057 7.147214,0 12.941176,5.66228 12.941176,12.647057 z"
           sodipodi:ry="12.647058"
           sodipodi:rx="12.941176"
           sodipodi:cy="32.64706"
           sodipodi:cx="41.764706"
           id="path3810"
           style="fill:#ff0000;fill-rule:evenodd;stroke:#000000;stroke-width:1px;stroke-linecap:butt;stroke-linejoin:miter;stroke-opacity:1"
           sodipodi:type="arc" />
        <path
           transform="matrix(0.34755848,0,0,0.34755848,42.399648,15.380412)"
           sodipodi:type="arc"
           style="fill:#ff0000;fill-rule:evenodd;stroke:#000000;stroke-width:1px;stroke-linecap:butt;stroke-linejoin:miter;stroke-opacity:1"
           id="path3812"
           sodipodi:cx="41.764706"
           sodipodi:cy="32.64706"
           sodipodi:rx="12.941176"
           sodipodi:ry="12.647058"
           d="m 54.705882,32.64706 c 0,6.984777 -5.793962,12.647058 -12.941176,12.647058 -7.147215,0 -12.941177,-5.662281 -12.941177,-12.647058 0,-6.984777 5.793962,-12.647057 12.941177,-12.647057 7.147214,0 12.941176,5.66228 12.941176,12.647057 z" />
        <path
           d="m 54.705882,32.64706 c 0,6.984777 -5.793962,12.647058 -12.941176,12.647058 -7.147215,0 -12.941177,-5.662281 -12.941177,-12.647058 0,-6.984777 5.793962,-12.647057 12.941177,-12.647057 7.147214,0 12.941176,5.66228 12.941176,12.647057 z"
           sodipodi:ry="12.647058"
           sodipodi:rx="12.941176"
           sodipodi:cy="32.64706"
           sodipodi:cx="41.764706"
           id="path3814"
           style="fill:#ff0000;fill-rule:evenodd;stroke:#000000;stroke-width:1px;stroke-linecap:butt;stroke-linejoin:miter;stroke-opacity:1"
           sodipodi:type="arc"
           transform="matrix(0.34755848,0,0,0.34755848,21.546139,31.940551)" />
        <path
           transform="matrix(0.34755848,0,0,0.34755848,41.172971,37.460598)"
           sodipodi:type="arc"
           style="fill:#ff0000;fill-rule:evenodd;stroke:#000000;stroke-width:1px;stroke-linecap:butt;stroke-linejoin:miter;stroke-opacity:1"
           id="path3816"
           sodipodi:cx="41.764706"
           sodipodi:cy="32.64706"
           sodipodi:rx="12.941176"
           sodipodi:ry="12.647058"
           d="m 54.705882,32.64706 c 0,6.984777 -5.793962,12.647058 -12.941176,12.647058 -7.147215,0 -12.941177,-5.662281 -12.941177,-12.647058 0,-6.984777 5.793962,-12.647057 12.941177,-12.647057 7.147214,0 12.941176,5.66228 12.941176,12.647057 z" />
        <path
           d="m 54.705882,32.64706 c 0,6.984777 -5.793962,12.647058 -12.941176,12.647058 -7.147215,0 -12.941177,-5.662281 -12.941177,-12.647058 0,-6.984777 5.793962,-12.647057 12.941177,-12.647057 7.147214,0 12.941176,5.66228 12.941176,12.647057 z"
           sodipodi:ry="12.647058"
           sodipodi:rx="12.941176"
           sodipodi:cy="32.64706"
           sodipodi:cx="41.764706"
           id="path3818"
           style="fill:#ff0000;fill-rule:evenodd;stroke:#000000;stroke-width:1px;stroke-linecap:butt;stroke-linejoin:miter;stroke-opacity:1"
           sodipodi:type="arc"
           transform="matrix(0.34755848,0,0,0.34755848,28.701754,52.589613)" />
        <path
           transform="matrix(0.34755848,0,0,0.34755848,58.959788,26.829396)"
           sodipodi:type="arc"
           style="fill:#0000ff;fill-opacity:1;fill-rule:evenodd;stroke:#000000;stroke-width:1px;stroke-linecap:butt;stroke-linejoin:miter;stroke-opacity:1"
           id="path3820"
           sodipodi:cx="41.764706"
           sodipodi:cy="32.64706"
           sodipodi:rx="12.941176"
           sodipodi:ry="12.647058"
           d="m 54.705882,32.64706 c 0,6.984777 -5.793962,12.647058 -12.941176,12.647058 -7.147215,0 -12.941177,-5.662281 -12.941177,-12.647058 0,-6.984777 5.793962,-12.647057 12.941177,-12.647057 7.147214,0 12.941176,5.66228 12.941176,12.647057 z" />
        <path
           inkscape:connection-end="#path2924"
           inkscape:connection-start="#path2928"
           inkscape:connector-type="polyline"
           id="path3822"
           d="M 41.633986,59.367004 37.645262,47.856685"
           style="fill:none;stroke:#000000;stroke-width:0.34755847px;stroke-linecap:butt;stroke-linejoin:miter;stroke-opacity:1" />
        <path
           inkscape:connection-end="#path2928"
           inkscape:connection-start="#path2926"
           inkscape:connector-type="polyline"
           id="path3824"
           d="m 51.922004,53.376732 -4.937928,5.990272"
           style="fill:none;stroke:#000000;stroke-width:0.34755847px;stroke-linecap:butt;stroke-linejoin:miter;stroke-opacity:1" />
        <path
           inkscape:connection-end="#path2922"
           inkscape:connection-start="#path2926"
           inkscape:connector-type="polyline"
           id="path3826"
           d="M 55.942503,44.237989 56.661472,31.296546"
           style="fill:none;stroke:#000000;stroke-width:0.34755847px;stroke-linecap:butt;stroke-linejoin:miter;stroke-opacity:1" />
        <path
           inkscape:connection-end="#path2912"
           inkscape:connection-start="#path2924"
           inkscape:connector-type="polyline"
           id="path3828"
           d="M 35.332662,38.717942 33.724279,28.638745"
           style="fill:none;stroke:#000000;stroke-width:0.34755847px;stroke-linecap:butt;stroke-linejoin:miter;stroke-opacity:1" />
        <path
           inkscape:connection-end="#path2922"
           inkscape:connection-start="#path2912"
           inkscape:connector-type="polyline"
           id="path3830"
           d="m 37.666718,24.58844 14.577013,1.619668"
           style="fill:none;stroke:#000000;stroke-width:0.34755847px;stroke-linecap:butt;stroke-linejoin:miter;stroke-opacity:1" />
        <path
           inkscape:connection-end="#path2930"
           inkscape:connection-start="#path2922"
           inkscape:connector-type="polyline"
           id="path3832"
           d="m 61.58692,29.956919 7.216951,4.989496"
           style="fill:none;stroke:#000000;stroke-width:0.34755847px;stroke-linecap:butt;stroke-linejoin:miter;stroke-opacity:1" />
        <path
           inkscape:connection-end="#path2930"
           inkscape:connection-start="#path2926"
           inkscape:connector-type="polyline"
           id="path3834"
           d="m 60.360243,46.015143 8.443628,-5.046766"
           style="fill:none;stroke:#000000;stroke-width:0.34755847px;stroke-linecap:butt;stroke-linejoin:miter;stroke-opacity:1" />
        <path
           inkscape:connection-end="#path3975"
           inkscape:connection-start="#path3820"
           inkscape:connector-type="polyline"
           transform="matrix(-0.08120012,-0.99669782,0.99669782,-0.08120012,13.082241,223.44409)"
           id="path4023"
           d="m 177.70854,79.75815 -6.81928,15.084245"
           style="fill:none;stroke:#000000;stroke-width:1px;stroke-linecap:butt;stroke-linejoin:miter;stroke-opacity:1" />
      </g>
      <g
         id="g3836"
         transform="matrix(-0.56379317,-0.82591602,0.82591602,-0.56379317,179.74767,206.80668)">
        <path
           sodipodi:type="arc"
           style="fill:#ff0000;fill-rule:evenodd;stroke:#000000;stroke-width:1px;stroke-linecap:butt;stroke-linejoin:miter;stroke-opacity:1"
           id="path3838"
           sodipodi:cx="41.764706"
           sodipodi:cy="32.64706"
           sodipodi:rx="12.941176"
           sodipodi:ry="12.647058"
           d="m 54.705882,32.64706 c 0,6.984777 -5.793962,12.647058 -12.941176,12.647058 -7.147215,0 -12.941177,-5.662281 -12.941177,-12.647058 0,-6.984777 5.793962,-12.647057 12.941177,-12.647057 7.147214,0 12.941176,5.66228 12.941176,12.647057 z"
           transform="matrix(0.34755848,0,0,0.34755848,18.479446,12.722611)" />
        <path
           d="m 54.705882,32.64706 c 0,6.984777 -5.793962,12.647058 -12.941176,12.647058 -7.147215,0 -12.941177,-5.662281 -12.941177,-12.647058 0,-6.984777 5.793962,-12.647057 12.941177,-12.647057 7.147214,0 12.941176,5.66228 12.941176,12.647057 z"
           sodipodi:ry="12.647058"
           sodipodi:rx="12.941176"
           sodipodi:cy="32.64706"
           sodipodi:cx="41.764706"
           id="path3840"
           style="fill:#ff0000;fill-rule:evenodd;stroke:#000000;stroke-width:1px;stroke-linecap:butt;stroke-linejoin:miter;stroke-opacity:1"
           sodipodi:type="arc"
           transform="matrix(0.34755848,0,0,0.34755848,42.399648,15.380412)" />
        <path
           transform="matrix(0.34755848,0,0,0.34755848,21.546139,31.940551)"
           sodipodi:type="arc"
           style="fill:#ff0000;fill-rule:evenodd;stroke:#000000;stroke-width:1px;stroke-linecap:butt;stroke-linejoin:miter;stroke-opacity:1"
           id="path3842"
           sodipodi:cx="41.764706"
           sodipodi:cy="32.64706"
           sodipodi:rx="12.941176"
           sodipodi:ry="12.647058"
           d="m 54.705882,32.64706 c 0,6.984777 -5.793962,12.647058 -12.941176,12.647058 -7.147215,0 -12.941177,-5.662281 -12.941177,-12.647058 0,-6.984777 5.793962,-12.647057 12.941177,-12.647057 7.147214,0 12.941176,5.66228 12.941176,12.647057 z" />
        <path
           d="m 54.705882,32.64706 c 0,6.984777 -5.793962,12.647058 -12.941176,12.647058 -7.147215,0 -12.941177,-5.662281 -12.941177,-12.647058 0,-6.984777 5.793962,-12.647057 12.941177,-12.647057 7.147214,0 12.941176,5.66228 12.941176,12.647057 z"
           sodipodi:ry="12.647058"
           sodipodi:rx="12.941176"
           sodipodi:cy="32.64706"
           sodipodi:cx="41.764706"
           id="path3844"
           style="fill:#ff0000;fill-rule:evenodd;stroke:#000000;stroke-width:1px;stroke-linecap:butt;stroke-linejoin:miter;stroke-opacity:1"
           sodipodi:type="arc"
           transform="matrix(0.34755848,0,0,0.34755848,41.172971,37.460598)" />
        <path
           transform="matrix(0.34755848,0,0,0.34755848,28.701754,52.589613)"
           sodipodi:type="arc"
           style="fill:#ff0000;fill-rule:evenodd;stroke:#000000;stroke-width:1px;stroke-linecap:butt;stroke-linejoin:miter;stroke-opacity:1"
           id="path3846"
           sodipodi:cx="41.764706"
           sodipodi:cy="32.64706"
           sodipodi:rx="12.941176"
           sodipodi:ry="12.647058"
           d="m 54.705882,32.64706 c 0,6.984777 -5.793962,12.647058 -12.941176,12.647058 -7.147215,0 -12.941177,-5.662281 -12.941177,-12.647058 0,-6.984777 5.793962,-12.647057 12.941177,-12.647057 7.147214,0 12.941176,5.66228 12.941176,12.647057 z" />
        <path
           d="m 54.705882,32.64706 c 0,6.984777 -5.793962,12.647058 -12.941176,12.647058 -7.147215,0 -12.941177,-5.662281 -12.941177,-12.647058 0,-6.984777 5.793962,-12.647057 12.941177,-12.647057 7.147214,0 12.941176,5.66228 12.941176,12.647057 z"
           sodipodi:ry="12.647058"
           sodipodi:rx="12.941176"
           sodipodi:cy="32.64706"
           sodipodi:cx="41.764706"
           id="path3848"
           style="fill:#0000ff;fill-opacity:1;fill-rule:evenodd;stroke:#000000;stroke-width:1px;stroke-linecap:butt;stroke-linejoin:miter;stroke-opacity:1"
           sodipodi:type="arc"
           transform="matrix(0.34755848,0,0,0.34755848,58.959788,26.829396)" />
        <path
           style="fill:none;stroke:#000000;stroke-width:0.34755847px;stroke-linecap:butt;stroke-linejoin:miter;stroke-opacity:1"
           d="M 41.633986,59.367004 37.645262,47.856685"
           id="path3850"
           inkscape:connector-type="polyline"
           inkscape:connection-start="#path2928"
           inkscape:connection-end="#path2924" />
        <path
           style="fill:none;stroke:#000000;stroke-width:0.34755847px;stroke-linecap:butt;stroke-linejoin:miter;stroke-opacity:1"
           d="m 51.922004,53.376732 -4.937928,5.990272"
           id="path3852"
           inkscape:connector-type="polyline"
           inkscape:connection-start="#path2926"
           inkscape:connection-end="#path2928" />
        <path
           style="fill:none;stroke:#000000;stroke-width:0.34755847px;stroke-linecap:butt;stroke-linejoin:miter;stroke-opacity:1"
           d="M 55.942503,44.237989 56.661472,31.296546"
           id="path3854"
           inkscape:connector-type="polyline"
           inkscape:connection-start="#path2926"
           inkscape:connection-end="#path2922" />
        <path
           style="fill:none;stroke:#000000;stroke-width:0.34755847px;stroke-linecap:butt;stroke-linejoin:miter;stroke-opacity:1"
           d="M 35.332662,38.717942 33.724279,28.638745"
           id="path3856"
           inkscape:connector-type="polyline"
           inkscape:connection-start="#path2924"
           inkscape:connection-end="#path2912" />
        <path
           style="fill:none;stroke:#000000;stroke-width:0.34755847px;stroke-linecap:butt;stroke-linejoin:miter;stroke-opacity:1"
           d="m 37.666718,24.58844 14.577013,1.619668"
           id="path3858"
           inkscape:connector-type="polyline"
           inkscape:connection-start="#path2912"
           inkscape:connection-end="#path2922" />
        <path
           style="fill:none;stroke:#000000;stroke-width:0.34755847px;stroke-linecap:butt;stroke-linejoin:miter;stroke-opacity:1"
           d="m 61.58692,29.956919 7.216951,4.989496"
           id="path3860"
           inkscape:connector-type="polyline"
           inkscape:connection-start="#path2922"
           inkscape:connection-end="#path2930" />
        <path
           style="fill:none;stroke:#000000;stroke-width:0.34755847px;stroke-linecap:butt;stroke-linejoin:miter;stroke-opacity:1"
           d="m 60.360243,46.015143 8.443628,-5.046766"
           id="path3862"
           inkscape:connector-type="polyline"
           inkscape:connection-start="#path2926"
           inkscape:connection-end="#path2930" />
        <path
           inkscape:connection-end="#path3975"
           inkscape:connection-start="#path3848"
           inkscape:connector-type="polyline"
           transform="matrix(-0.56379316,0.82591601,-0.82591601,-0.56379316,272.14546,-31.860286)"
           id="path4029"
           d="m 169.62809,119.09594 -0.61779,-15.1148"
           style="fill:none;stroke:#000000;stroke-width:1px;stroke-linecap:butt;stroke-linejoin:miter;stroke-opacity:1" />
      </g>
      <path
         d="m 54.705882,32.64706 c 0,6.984777 -5.793962,12.647058 -12.941176,12.647058 -7.147215,0 -12.941177,-5.662281 -12.941177,-12.647058 0,-6.984777 5.793962,-12.647057 12.941177,-12.647057 7.147214,0 12.941176,5.66228 12.941176,12.647057 z"
         sodipodi:ry="12.647058"
         sodipodi:rx="12.941176"
         sodipodi:cy="32.64706"
         sodipodi:cx="41.764706"
         id="path3975"
         style="fill:#00ff00;fill-opacity:1;fill-rule:evenodd;stroke:#000000;stroke-width:1px;stroke-linecap:butt;stroke-linejoin:miter;stroke-opacity:1"
         sodipodi:type="arc"
         transform="matrix(0.34755848,0,0,0.34755848,154.30786,88.065004)" />
    </g>
  </g>
</svg>
